<svg xmlns="http://www.w3.org/2000/svg" viewBox="0 0 100 100"><defs><style>.cls-1{fill:#665b50;}</style></defs><title>ShellHacks Logo</title><g id="Layer_11" data-name="Layer 11"><path class="cls-1" d="M61.79,13.16,48.54,36.26l1.69.83.21.09.15.08.18.1c.24.14.51.28.78.47l.44.27c.14.11.29.21.45.32.32.21.62.48,1,.74A18.41,18.41,0,0,1,57.48,44a19.36,19.36,0,0,1,1.64,3.67c.23.68.4,1.4.57,2.14A21.25,21.25,0,0,1,60,52.09a20.07,20.07,0,0,1,0,2.46c0,.21,0,.42,0,.63l0,.32,0,.32c0,.21,0,.43-.08.64s-.08.43-.11.65l-.06.33-.08.33c0,.21-.09.43-.14.65s-.13.44-.19.66l-.09.33-.12.33c-.07.22-.15.44-.22.67l-.27.66-.06.16,0,.09.11-.19,0,.06-.24.49-.36.73-.09.19,0,.09-.08.14c-.11.18-.21.38-.32.56l-.35.55-.38.54a16,16,0,0,1-1.8,2,15.32,15.32,0,0,1-4.87,3,15.67,15.67,0,0,1-6.06,1,15.35,15.35,0,0,1-3.19-.42,7.06,7.06,0,0,1-.79-.21,8.18,8.18,0,0,1-.8-.25c-.26-.08-.52-.19-.78-.29l-.2-.08-.1,0,.12.07-.07,0L37.61,69l-.37-.18L37,68.68c-.2-.12-.44-.24-.65-.37s-.43-.27-.63-.43-.4-.3-.61-.46A12.39,12.39,0,0,1,33,65.16a12.66,12.66,0,0,1-2.31-6,13,13,0,0,1,.06-3.36,14.44,14.44,0,0,1,.37-1.68c.07-.28.17-.55.26-.82s.11-.27.16-.41l.08-.2,0-.11,0,0s.09-.16-.05.08l.44-.89.06-.13a1.29,1.29,0,0,1,.09-.16l.2-.34a10.69,10.69,0,0,1,.94-1.27,9.29,9.29,0,0,1,1.15-1.11,9.49,9.49,0,0,1,1.32-.93,10.65,10.65,0,0,1,6.4-1.4,11,11,0,0,1,3.29.86c-.38-.22-.07,0-.13-.08l.06,0,.14.07.26.14.53.28a.55.55,0,0,1,.16.1l.12.08.25.14L47,48s0,0,.08.06l.15.12.31.23a3.73,3.73,0,0,1,.3.26l.28.27a8.68,8.68,0,0,1,2.51,5.73,9.17,9.17,0,0,1-.43,3.2c-.1.25-.2.51-.29.77l0,0s.14-.24.06-.09l-.07.12-.13.25-.25.48-.32.5c-.16.19-.29.41-.46.59a7.28,7.28,0,0,1-5.38,2.4,7.47,7.47,0,0,1-2.95-.59l-.09,0s-.13-.07.05,0l-.05,0L40,62.21,39.61,62l-.25-.16a1.48,1.48,0,0,1-.25-.16,5.85,5.85,0,0,1-.54-.45L38.32,61l-.23-.27a6.54,6.54,0,0,1-.78-1.16,6.92,6.92,0,0,1-.47-1.32,6.19,6.19,0,0,1-.05-2.74c0-.23.12-.44.17-.67l.25-.64s-.06.1,0,0l0-.05,0-.09.1-.19.1-.18,0,0,0,0,0,0,.14-.23c0-.08.13-.17.19-.25a4.69,4.69,0,0,1,.9-.88,3.64,3.64,0,0,1,.52-.35l.28-.15.28-.13c.19-.09.39-.14.58-.21s.4-.09.6-.14a5.52,5.52,0,0,1,1.21-.06,5.37,5.37,0,0,1,2.26.65l.08,0,.05,0,.1.07c.07,0,.14.08.21.14s.24.18.35.28A4.17,4.17,0,1,0,43.1,60.1h.33A4.44,4.44,0,0,0,46.22,59a4.93,4.93,0,0,0,1.14-1.62,5.49,5.49,0,0,0,.48-2.23,5.83,5.83,0,0,0-2.43-4.8,7.43,7.43,0,0,0-6.35-1.06l-.44.13-.43.17a8.32,8.32,0,0,0-.85.41,8,8,0,0,0-1.56,1.18c-.12.12-.24.22-.36.36s-.23.29-.35.43L35,52l-.07.1-.12.17-.12.17-.06.09,0,0s-.06.11-.07.12c-.15.29-.32.58-.47.88s-.27.63-.39,1a9.87,9.87,0,0,0-.47,4.25,10.1,10.1,0,0,0,.49,2.2,10.71,10.71,0,0,0,1,2.1l.33.5.38.47a7.83,7.83,0,0,0,.83.9,4.36,4.36,0,0,0,.5.44c.17.14.36.3.53.42l.4.28.2.14,0,0,.17.09.13.08a12.36,12.36,0,0,0,4.69,1.59,12.64,12.64,0,0,0,5.2-.42A13.1,13.1,0,0,0,52.93,65c.36-.31.68-.66,1-1s.69-.83,1-1.24l.31-.45.16-.23.08-.11a1.51,1.51,0,0,0,.12-.21l0-.07c.23-.41.45-.82.67-1.23a16.27,16.27,0,0,0,.95-11.45,16.72,16.72,0,0,0-2.75-5.52l-.5-.62a7.31,7.31,0,0,0-.52-.59L53,41.74l-.29-.28a1.85,1.85,0,0,0-.14-.14l-.17-.15-.71-.57-.36-.29L51,40.07l-.49-.34-.25-.17-.12-.09-.07,0c-.11-.07.16.08-.26-.16A23.16,23.16,0,0,0,47,37.87a21.57,21.57,0,0,0-3-1,20.92,20.92,0,0,0-12.78,1,21.6,21.6,0,0,0-3,1.53,19.58,19.58,0,0,0-2.74,2,21.36,21.36,0,0,0-2.41,2.44c-.19.21-.37.44-.54.67l-.27.34-.28.41-.28.4-.22.33-.35.52-.48.85c-.13.23-.27.47-.39.72-.25.49-.5,1-.72,1.48a28.4,28.4,0,0,0-1.15,3.12,26.44,26.44,0,0,0,2,19.77,27.22,27.22,0,0,0,4,5.64c.4.43.79.85,1.22,1.25s.85.79,1.29,1.16.89.73,1.36,1.09l.81.57.42.28.27.18.52.34.06,0a2.56,2.56,0,0,0,.26.15l.17.1.36.2c.47.27.94.55,1.44.78s1,.5,1.48.71,1,.45,1.51.64a33.1,33.1,0,0,0,19.28,1.41,34,34,0,0,0,16.55-9.11l1.09-1.13,1-1.17c.33-.4.64-.81,1-1.21l.24-.31.25-.36.5-.72.45-.67.3-.45.3-.45.47-.82.7-1.24c.22-.42.43-.84.64-1.26l.31-.63c.1-.21.2-.43.29-.64l.56-1.28c.17-.44.34-.87.5-1.3.09-.22.17-.43.25-.65s.14-.44.22-.65a3.58,3.58,0,0,1,.11-.35S94.47,30.72,61.79,13.16Z"/></g></svg>