<svg xmlns="http://www.w3.org/2000/svg" xmlns:xlink="http://www.w3.org/1999/xlink" viewBox="0 0 100 100"><defs><style>.cls-1{fill:none}.cls-2{clip-path:url(#clip-path)}.cls-3{fill:#c9e9ef}.cls-4{fill:#94d6de}.cls-5{fill:#675c51}</style><clipPath id="clip-path"><circle cx="50" cy="-67.75" r="50" class="cls-1"/></clipPath></defs><title>Icon</title><g id="Layer_9" data-name="Layer 9"><g class="cls-2"><path d="M55.32,58.6c4.9-8.4,4.62-18.3-.67-24.66-5.55-6.65-15.39-8.06-24.17-3.39,0,0,3.63-9.49,12.42-13.81A20.53,20.53,0,0,1,58.52,15.5c.48.16,9,3.09,11.58,11.57C73,36.7,67.25,50.14,55.32,58.6Z" class="cls-3"/><path d="M60-63.51c-13.12-6.83-30.52-4.38-38.77-2.85,0,0-7.15,1.18-8.36-.9-.41-.7.2-1.48-1.13-1.51-2.21-.07-2.92-1.66.07-2.79a30.24,30.24,0,0,0,5.1-2.27C21-76.26,24.7-82,25.63-84.3c3.88-9.45,34.72-16.57,48.83-7.77C160.22-38.53,49.27,31.55,51.34,27.73,80-25.11,83.3-51.3,60-63.51Z" class="cls-4"/><path d="M58.87-70c17.77,4.55,28.91,19.52,21.58,46.46-2.45,9-6,16.58-18,29.41,18-38.49,17.4-59.06-2.49-69.42-9.32-4.83-20.8-5-29.62-4.17C38.59-70.41,49.25-72.52,58.87-70Z" class="cls-3"/></g></g><g id="Layer_11" data-name="Layer 11"><path d="M50,.28A49.72,49.72,0,1,0,100,50,49.86,49.86,0,0,0,50,.28ZM76.57,60.1c0,.1-.07.2-.1.3s-.12.38-.19.57-.13.37-.21.56c-.14.37-.28.74-.43,1.11l-.48,1.11c-.08.18-.17.36-.25.55l-.27.54c-.18.36-.36.72-.55,1.08L73.49,67c-.14.23-.27.47-.41.71l-.25.38-.26.39-.39.57-.43.63-.22.3-.2.27c-.27.35-.54.7-.83,1l-.87,1-.94,1A29.17,29.17,0,0,1,54.45,81.1a28.78,28.78,0,0,1-11.14.29,28.3,28.3,0,0,1-5.44-1.51c-.45-.16-.87-.35-1.31-.55s-.85-.39-1.27-.6-.83-.44-1.23-.68l-.31-.17-.15-.09-.22-.12-.06,0-.44-.29-.24-.16-.35-.24-.7-.49c-.41-.31-.8-.61-1.18-.93s-.75-.65-1.1-1-.71-.7-1-1.07a22.75,22.75,0,0,1-5.13-21.86,21.54,21.54,0,0,1,1-2.68c.18-.44.4-.86.61-1.28.1-.21.22-.41.34-.62l.41-.72.3-.45.19-.29.24-.35.24-.34.23-.3c.15-.19.3-.39.47-.58a18.57,18.57,0,0,1,2.07-2.09,17.14,17.14,0,0,1,2.36-1.72,18.91,18.91,0,0,1,2.57-1.32,18,18,0,0,1,11-.88,17.25,17.25,0,0,1,2.58.83A19.05,19.05,0,0,1,50.12,40c.36.21.13.08.22.14l.06,0,.1.07.22.15.42.29.28.21.31.24.6.5.15.13.13.12.24.24.48.49a4.41,4.41,0,0,1,.45.52l.43.53a14.22,14.22,0,0,1,2.37,4.75,14,14,0,0,1-.82,9.84l-.57,1.06,0,.07s-.16.27-.1.18l-.07.09-.14.2-.27.39c-.27.35-.57.74-.87,1.06a11.91,11.91,0,0,1-.89.85,11.09,11.09,0,0,1-4.15,2.25,10.82,10.82,0,0,1-4.47.36,10.53,10.53,0,0,1-4-1.37L40,63.33l-.14-.09,0,0-.18-.12-.34-.24-.46-.36a4.14,4.14,0,0,1-.43-.38,7.36,7.36,0,0,1-.71-.77l-.32-.41-.29-.43a9.36,9.36,0,0,1-.88-1.8,9.11,9.11,0,0,1-.42-1.9,8.54,8.54,0,0,1,.4-3.65c.1-.28.23-.55.34-.82s.27-.51.41-.76l.06-.1,0,0,0-.07.11-.15.1-.14a.24.24,0,0,1,.06-.09l.08-.09.3-.37c.1-.12.2-.21.31-.32a6,6,0,0,1,2.07-1.36l.37-.15.38-.12a6.43,6.43,0,0,1,5.46.92,5,5,0,0,1,2.09,4.13A4.66,4.66,0,0,1,48,55.53a4.12,4.12,0,0,1-1,1.4,3.78,3.78,0,0,1-2.39,1h-.29a3.59,3.59,0,0,1,0-7.18,3.52,3.52,0,0,1,1.88.53c-.09-.09-.2-.16-.29-.24l-.18-.12-.09-.06,0,0-.06,0a4.68,4.68,0,0,0-1.94-.56,4.62,4.62,0,0,0-1.05.05l-.51.12a4.29,4.29,0,0,0-.5.19l-.25.1-.23.14c-.16.08-.3.2-.46.29a4.32,4.32,0,0,0-.77.77c0,.07-.12.14-.16.21l-.12.19,0,0v0l0,0-.09.15-.08.16,0,.08,0,0v0l-.21.55c0,.2-.11.38-.15.57a5.57,5.57,0,0,0,0,2.37,6.65,6.65,0,0,0,.41,1.13,5.63,5.63,0,0,0,.67,1l.2.23.22.21a3.32,3.32,0,0,0,.46.38,1.23,1.23,0,0,0,.22.15l.21.13.37.2.19.1,0,0c-.16-.09,0,0,0,0l.07,0a6.43,6.43,0,0,0,2.55.52,6.27,6.27,0,0,0,4.62-2.07c.15-.16.26-.34.4-.5l.27-.43.22-.42.11-.21.06-.11c.07-.13-.07.12,0,.08l0-.05.24-.66a7.56,7.56,0,0,0,.37-2.75,7.44,7.44,0,0,0-2.15-4.93l-.25-.23a1.71,1.71,0,0,0-.25-.22l-.27-.2-.13-.11-.06,0-.06,0-.21-.13-.1-.06-.14-.09L46.72,47l-.23-.12-.11-.06-.06,0c.06,0-.21-.12.11.07A11.41,11.41,0,0,0,45,46.34a10,10,0,0,0-1.43-.26,9.2,9.2,0,0,0-5.51,1.2,10.21,10.21,0,0,0-1.14.81,6.85,6.85,0,0,0-1,1,7.16,7.16,0,0,0-.81,1.09c-.06.09-.11.19-.17.29a1,1,0,0,0-.08.14l-.05.11-.38.77,0-.07v0l0,.09-.07.17a2.2,2.2,0,0,0-.13.36c-.08.23-.17.47-.23.71a10.3,10.3,0,0,0-.32,1.44,11.2,11.2,0,0,0,0,2.89,10.94,10.94,0,0,0,2,5.19,10.56,10.56,0,0,0,1.83,1.94,6.54,6.54,0,0,0,.52.4c.18.13.37.24.55.36s.38.22.55.32l.2.09.32.17.48.23.06,0c.06,0-.25-.14-.1-.06l.08,0,.17.07c.23.09.45.18.68.25s.45.16.68.22.46.14.69.18a12.87,12.87,0,0,0,2.74.36A13.47,13.47,0,0,0,50.33,66a12.82,12.82,0,0,0,5.74-4.31l.33-.46.3-.48c.1-.16.18-.32.28-.48l.06-.12,0-.08a.77.77,0,0,1,.07-.16l.31-.63.21-.42,0-.05L57.6,59l0-.07,0-.15c.08-.19.15-.38.23-.56l.19-.58.1-.28.08-.28c0-.19.11-.38.16-.57s.09-.38.13-.57l.06-.28,0-.28c0-.18.07-.37.1-.56s0-.37.07-.55l0-.28,0-.27c0-.18,0-.36,0-.54a16.56,16.56,0,0,0,0-2.12,17.66,17.66,0,0,0-.28-2,14.56,14.56,0,0,0-.49-1.84A16.39,16.39,0,0,0,56.73,44a15.77,15.77,0,0,0-3.5-4.13c-.3-.22-.56-.46-.83-.63L52,39l-.38-.23c-.23-.16-.46-.29-.67-.41l-.15-.08a.45.45,0,0,0-.14-.07l-.18-.08L49,37.41l11.4-19.88C88.55,32.64,76.57,60.1,76.57,60.1Z" class="cls-5"/></g></svg>