<svg xmlns="http://www.w3.org/2000/svg" xmlns:xlink="http://www.w3.org/1999/xlink" id="Layer_1" data-name="Layer 1" viewBox="0 0 200 200"><defs><style>.cls-1{fill:url(#linear-gradient)}.cls-2{fill:#fff}.cls-3{fill:url(#linear-gradient-2)}</style><linearGradient id="linear-gradient" x2="200" y1="100" y2="100" gradientUnits="userSpaceOnUse"><stop offset="0" stop-color="#4074ba"/><stop offset=".57" stop-color="#36a0c9"/><stop offset="1" stop-color="#30bdd2"/></linearGradient><linearGradient id="linear-gradient-2" x1="36.44" x2="60.05" y1="48.04" y2="48.04" gradientUnits="userSpaceOnUse"><stop offset="0" stop-color="#fff"/><stop offset="1" stop-color="#fff"/></linearGradient></defs><title>ai</title><circle cx="100" cy="100" r="100" class="cls-1"/><path d="M149.25,93.94a4.73,4.73,0,0,0-4.72-4.72,4.67,4.67,0,0,0-1.54.28l-7-8.8a4.7,4.7,0,0,0-7.36-5.77L116.2,69.21c0-.14,0-.28,0-.42a4.7,4.7,0,0,0-9.14-1.58H89.23a4.71,4.71,0,0,0-9.15,1.58,5.51,5.51,0,0,0,.06.57l-7.79,3.9a4.7,4.7,0,0,0-8,3.39,4.64,4.64,0,0,0,.72,2.47L58,87.93a4.56,4.56,0,0,0-1.53-.28,4.7,4.7,0,0,0-1.58,9.14v10a4.7,4.7,0,1,0,5.65,6.76l8.58,1.56a4.7,4.7,0,0,0,4.64,4l.18,0,3,7.5a4.67,4.67,0,0,0-1.61,3.52,4.71,4.71,0,0,0,8.55,2.73l13.48,3.85a4.71,4.71,0,0,0,3.12,4.13h3.14a4.67,4.67,0,0,0,1.32-8.12l1.88-5.63,14.1,4.7a4.72,4.72,0,0,0,3.14,4.34h3.14a4.67,4.67,0,0,0,2.84-6.06l12.06-10a4.62,4.62,0,0,0,2.39.68,4.7,4.7,0,0,0,1.57-9.14V98.36A4.71,4.71,0,0,0,149.25,93.94ZM132,76.65a1.57,1.57,0,1,1-1.58,1.57A1.57,1.57,0,0,1,132,76.65Zm-2.24,5.69a4.59,4.59,0,0,0,2.24.59,4.82,4.82,0,0,0,1.53-.27l7,8.8a4.46,4.46,0,0,0-.65,3.22l-11.13,6.07L120.65,94a4.63,4.63,0,0,0,.3-1.63,4.74,4.74,0,0,0-.36-1.8ZM110,108.08a4.55,4.55,0,0,0-2,.48l-6.66-6.66L113,95.8a4.66,4.66,0,0,0,3.21,1.28,4.74,4.74,0,0,0,2.39-.67l7.16,6-12.71,6.93A4.65,4.65,0,0,0,110,108.08Zm1.57,4.72a1.57,1.57,0,1,1-1.57-1.57A1.57,1.57,0,0,1,111.52,112.8ZM87.76,95.49,90.4,104,77,110.93a4.69,4.69,0,0,0-2-1.1L72.82,93.12l10.77-.54A4.71,4.71,0,0,0,87.76,95.49Zm-1.39-4.7a1.58,1.58,0,1,1,1.57,1.57A1.58,1.58,0,0,1,86.37,90.79Zm5,16.25,4,12.85L78.5,114.28a4.89,4.89,0,0,0,0-.55Zm0-10.64L96,101.08l-2.78,1.44Zm.86-3.59a4.6,4.6,0,0,0,.07-3.9l7.47-7,12,9a4.61,4.61,0,0,0-.24,1.39,4.78,4.78,0,0,0,.07.65L98.94,99.56Zm22.48-.45a1.57,1.57,0,1,1,1.57,1.58A1.57,1.57,0,0,1,114.67,92.36Zm13.71,12.17,11.27,9.39-24.41-2.22ZM111.52,67.21A1.58,1.58,0,1,1,110,68.79,1.57,1.57,0,0,1,111.52,67.21ZM109.36,73a4.62,4.62,0,0,0,5.53-.88l12.39,5.72c0,.14,0,.28,0,.43a4.66,4.66,0,0,0,.36,1.8l-9.13,8.22a4.58,4.58,0,0,0-2.23-.59,4.65,4.65,0,0,0-2.61.79l-11.57-8.67Zm-2.26-2.59c0,.1.06.21.1.31l-7.7,7.18-10-7.49ZM84.8,67.21a1.58,1.58,0,1,1-1.57,1.58A1.57,1.57,0,0,1,84.8,67.21Zm-11,9.44a5,5,0,0,0-.06-.57l7.8-3.9a4.69,4.69,0,0,0,5.87.53L97.17,80,90.1,86.62a4.66,4.66,0,0,0-6.65,2.82l-11,.55-1.2-9.16A4.7,4.7,0,0,0,73.8,76.65Zm-4.72-1.58a1.58,1.58,0,1,1-1.57,1.58A1.57,1.57,0,0,1,69.08,75.07Zm-1.54,6a4,4,0,0,0,.56.17l1.16,8.9-8.4.42a4.42,4.42,0,0,0-.36-.68Zm-11,9.71a1.58,1.58,0,1,1-1.58,1.57A1.58,1.58,0,0,1,56.51,90.79Zm0,22a1.57,1.57,0,1,1,1.57-1.57A1.58,1.58,0,0,1,56.51,112.8ZM69.73,112l-8.58-1.56a4.72,4.72,0,0,0-3.07-3.67v-10A4.7,4.7,0,0,0,61,93.71l8.67-.43,2.19,16.8A4.74,4.74,0,0,0,69.73,112Zm4.07,3.91a1.57,1.57,0,1,1,1.57-1.57A1.57,1.57,0,0,1,73.8,115.94Zm6.28,15.72a1.57,1.57,0,1,1,1.58-1.57A1.57,1.57,0,0,1,80.08,131.66Zm18.18,2-13.49-3.86a4.71,4.71,0,0,0-4.69-4.42l-.18,0-3-7.5a4.47,4.47,0,0,0,.6-.63l19,6.33,2.8,9A4.53,4.53,0,0,0,98.26,133.65Zm3.83,4.3a1.57,1.57,0,1,1,1.57-1.57A1.57,1.57,0,0,1,102.09,138Zm0-6.7-2-6.44,3.72,1.24Zm2.73-8.18-5.87-2-4.82-15.54,4.16-2.16,7.37,7.37a4.55,4.55,0,0,0-.48,2,4.73,4.73,0,0,0,1.83,3.7Zm20.8,10.16a1.57,1.57,0,1,1,1.57-1.57A1.57,1.57,0,0,1,125.67,133.23Zm2.39-5.61a4.62,4.62,0,0,0-2.39-.67,4.69,4.69,0,0,0-3.7,1.82l-14.12-4.7,2.19-6.56a4.7,4.7,0,0,0,4.18-2.74L140,117.11c0,.15.09.31.14.46Zm3.29-24.71,10.05-5.48a4.66,4.66,0,0,0,1.56.93v13.16a4.71,4.71,0,0,0-.82.38Zm13.18,14.6a1.57,1.57,0,1,1,1.57-1.57A1.57,1.57,0,0,1,144.53,117.51Zm0-22a1.58,1.58,0,1,1,1.57-1.57A1.57,1.57,0,0,1,144.53,95.51Z" class="cls-2"/><path d="M46.84,62.12C50.55,55.5,56.39,51,64.31,47.51c4.94-2.19,6.1-9.39,3.59-13.68-3-5.09-8.73-5.79-13.69-3.59C44,34.79,35.09,42.19,29.57,52c-6.31,11.24,11,21.34,17.27,10.1Z" class="cls-3"/></svg>