<svg xmlns="http://www.w3.org/2000/svg" xmlns:xlink="http://www.w3.org/1999/xlink" id="Layer_1" data-name="Layer 1" viewBox="0 0 200 200"><defs><style>.cls-1{fill:url(#linear-gradient)}.cls-2{fill:url(#linear-gradient-2)}.cls-3{fill:#fff}</style><linearGradient id="linear-gradient" x2="200" y1="100" y2="100" gradientUnits="userSpaceOnUse"><stop offset="0" stop-color="#2e76d1"/><stop offset=".55" stop-color="#2e9fd1"/><stop offset="1" stop-color="#2ebcd1"/></linearGradient><linearGradient id="linear-gradient-2" x1="36.44" x2="60.05" y1="48.04" y2="48.04" gradientUnits="userSpaceOnUse"><stop offset="0" stop-color="#fff"/><stop offset="1" stop-color="#fff"/></linearGradient></defs><title>Back-End</title><circle cx="100" cy="100" r="100" class="cls-1"/><path d="M46.84,62.12C50.55,55.5,56.39,51,64.31,47.51c4.94-2.19,6.1-9.39,3.59-13.68-3-5.09-8.73-5.79-13.69-3.59C44,34.79,35.09,42.19,29.57,52c-6.31,11.24,11,21.34,17.27,10.1Z" class="cls-2" transform="translate(0 0)"/><g id="Settings"><path d="M135.48,98a2.34,2.34,0,0,0-2.3-1.76,7.88,7.88,0,0,1-5.39-13.72,2,2,0,0,0,.21-2.69,34.69,34.69,0,0,0-5.65-5.71,2,2,0,0,0-2.72.22,8.22,8.22,0,0,1-8.9,2,7.93,7.93,0,0,1-4.82-7.75,2,2,0,0,0-1.75-2.09,35.44,35.44,0,0,0-8,0,2,2,0,0,0-1.76,2,8,8,0,0,1-4.89,7.62,8.27,8.27,0,0,1-8.84-2,2,2,0,0,0-2.69-.23,35.48,35.48,0,0,0-5.78,5.71,2,2,0,0,0,.21,2.72,7.9,7.9,0,0,1,2,8.9,8.25,8.25,0,0,1-7.77,4.83,1.93,1.93,0,0,0-2.06,1.75,35.56,35.56,0,0,0,0,8.12,2.37,2.37,0,0,0,2.34,1.76,7.82,7.82,0,0,1,7.35,4.89,7.93,7.93,0,0,1-2,8.83A2,2,0,0,0,72,124.1a35.84,35.84,0,0,0,5.64,5.71,2,2,0,0,0,2.72-.21,8.22,8.22,0,0,1,8.9-2,7.93,7.93,0,0,1,4.83,7.75,2,2,0,0,0,1.75,2.09,35.44,35.44,0,0,0,4.12.24,34.47,34.47,0,0,0,3.92-.22,2,2,0,0,0,1.76-2,8,8,0,0,1,4.89-7.62,8.24,8.24,0,0,1,8.84,2,2,2,0,0,0,2.69.23,35.89,35.89,0,0,0,5.78-5.71,2,2,0,0,0-.21-2.71,7.89,7.89,0,0,1,5.3-13.75h.44a2,2,0,0,0,2.09-1.75A35.56,35.56,0,0,0,135.48,98Zm-35.42,16A11.91,11.91,0,1,1,112,102,11.92,11.92,0,0,1,100.06,114Z" class="cls-3" transform="translate(0 0)"/></g></svg>