<svg xmlns="http://www.w3.org/2000/svg" xmlns:xlink="http://www.w3.org/1999/xlink" id="Layer_1" data-name="Layer 1" viewBox="0 0 200 200"><defs><style>.cls-1{fill:url(#linear-gradient)}.cls-2{fill:#fff}.cls-3{fill:url(#linear-gradient-2)}</style><linearGradient id="linear-gradient" x2="200" y1="100" y2="100" gradientUnits="userSpaceOnUse"><stop offset="0" stop-color="#3f74b9"/><stop offset=".56" stop-color="#359ec7"/><stop offset="1" stop-color="#2ebbd1"/></linearGradient><linearGradient id="linear-gradient-2" x1="36.44" x2="60.05" y1="48.04" y2="48.04" gradientUnits="userSpaceOnUse"><stop offset="0" stop-color="#fff"/><stop offset="1" stop-color="#fff"/></linearGradient></defs><title>Front-End</title><circle cx="100" cy="100" r="100" class="cls-1"/><path d="M51.18,76.46V135.7a2.54,2.54,0,0,0,2.5,2.5h95.57a2.53,2.53,0,0,0,2.5-2.5V76.46a2.54,2.54,0,0,0-2.5-2.5H53.68c-3.22,0-3.22,5,0,5h95.57l-2.5-2.5V135.7l2.5-2.5H53.68l2.5,2.5V76.46C56.18,73.25,51.18,73.24,51.18,76.46Z" class="cls-2"/><path d="M89,91.49,77,102.8a2.5,2.5,0,0,0,0,3.53l12,10c2.45,2,6-1.47,3.53-3.54l-12-10v3.53l12-11.3c2.35-2.21-1.19-5.75-3.53-3.54Z" class="cls-2"/><path d="M113.75,116.36,126,105.27a2.52,2.52,0,0,0,0-3.54L114.13,91.49c-2.42-2.1-6,1.43-3.53,3.54l11.82,10.24v-3.54l-12.21,11.09c-2.38,2.17,1.16,5.7,3.54,3.54Z" class="cls-2"/><path d="M100.71,119.57l6-25.65c.73-3.13-4.08-4.46-4.82-1.33l-6,25.65c-.73,3.13,4.09,4.47,4.82,1.33Z" class="cls-2"/><path d="M46.84,62.12C50.55,55.5,56.39,51,64.31,47.51c4.94-2.19,6.1-9.39,3.59-13.68-3-5.09-8.73-5.79-13.69-3.59C44,34.79,35.09,42.19,29.57,52c-6.31,11.24,11,21.34,17.27,10.1Z" class="cls-3"/></svg>