<svg xmlns="http://www.w3.org/2000/svg" xmlns:xlink="http://www.w3.org/1999/xlink" id="Layer_1" data-name="Layer 1" viewBox="0 0 200 200"><defs><style>.cls-1{fill:url(#linear-gradient)}.cls-2{fill:url(#linear-gradient-2)}.cls-3{fill:url(#linear-gradient-3)}.cls-4{fill:#fff}</style><linearGradient id="linear-gradient" x1="37.76" x2="59.46" y1="48.02" y2="48.02" gradientUnits="userSpaceOnUse"><stop offset="0" stop-color="#fff"/><stop offset="1" stop-color="#fff"/></linearGradient><linearGradient id="linear-gradient-2" x2="200" y1="100" y2="100" gradientUnits="userSpaceOnUse"><stop offset="0" stop-color="#3f74b9"/><stop offset=".56" stop-color="#359ec7"/><stop offset="1" stop-color="#2ebbd1"/></linearGradient><linearGradient id="linear-gradient-3" x1="36.44" x2="60.05" y1="48.04" y2="48.04" xlink:href="#linear-gradient"/></defs><title>hardware</title><path d="M40.36,58.33C44.91,50.22,52.11,44.77,60.52,41c2.94-1.31.4-5.62-2.52-4.32C48.85,40.78,41,47,36,55.81c-1.57,2.81,2.74,5.33,4.32,2.52Z" class="cls-1"/><circle cx="100" cy="100" r="100" class="cls-2"/><path d="M46.84,62.12C50.55,55.5,56.39,51,64.31,47.51c4.94-2.19,6.1-9.39,3.59-13.68-3-5.09-8.73-5.79-13.69-3.59C44,34.79,35.09,42.19,29.57,52c-6.31,11.24,11,21.34,17.27,10.1Z" class="cls-3"/><path d="M71.34,77.24v50A3.8,3.8,0,0,0,75.09,131h50a3.8,3.8,0,0,0,3.75-3.75v-50a3.8,3.8,0,0,0-3.75-3.75h-50c-4.82,0-4.83,7.5,0,7.5h50l-3.75-3.75v50l3.75-3.75h-50l3.75,3.75v-50C78.84,72.41,71.34,72.41,71.34,77.24Z" class="cls-4"/><path d="M86.92,91.57v21.34a2.54,2.54,0,0,0,2.5,2.5h21.34a2.54,2.54,0,0,0,2.5-2.5V91.57a2.54,2.54,0,0,0-2.5-2.5H89.42c-3.21,0-3.22,5,0,5h21.34l-2.5-2.5v21.34l2.5-2.5H89.42l2.5,2.5V91.57C91.92,88.36,86.92,88.35,86.92,91.57Z" class="cls-4"/><path d="M91.92,76V66.39c0-3.22-5-3.23-5,0V76c0,3.22,5,3.22,5,0Z" class="cls-4"/><path d="M113.26,76V66.39c0-3.22-5-3.23-5,0V76c0,3.22,5,3.22,5,0Z" class="cls-4"/><path d="M125.09,94.07h10.65c3.22,0,3.22-5,0-5H125.09c-3.22,0-3.22,5,0,5Z" class="cls-4"/><path d="M125.09,115.41h10.65c3.22,0,3.22-5,0-5H125.09c-3.22,0-3.22,5,0,5Z" class="cls-4"/><path d="M75.09,110.41H64.59c-3.22,0-3.23,5,0,5h10.5c3.22,0,3.22-5,0-5Z" class="cls-4"/><path d="M73.09,89.07h-8.5c-3.22,0-3.23,5,0,5h8.5c3.21,0,3.22-5,0-5Z" class="cls-4"/><path d="M86.92,127.24v10.67c0,3.21,5,3.22,5,0V127.24c0-3.22-5-3.22-5,0Z" class="cls-4"/><path d="M108.26,127.24v10.67c0,3.21,5,3.22,5,0V127.24c0-3.22-5-3.22-5,0Z" class="cls-4"/></svg>