<svg xmlns="http://www.w3.org/2000/svg" xmlns:xlink="http://www.w3.org/1999/xlink" id="Layer_1" x="0" y="0" enable-background="new 0 0 200 200" version="1.1" viewBox="0 0 200 200" xml:space="preserve"><style type="text/css">.st0{fill:url(#SVGID_1_)}.st1{fill:url(#SVGID_2_)}.st2{fill:#fff}.st3{fill:url(#SVGID_3_)}</style><g><g><linearGradient id="SVGID_1_" x1="37.762" x2="59.458" y1="48.02" y2="48.02" gradientUnits="userSpaceOnUse"><stop offset="0" stop-color="#FFF"/><stop offset="1" stop-color="#FFF"/></linearGradient><path d="M40.4,58.3c4.6-8.1,11.8-13.6,20.2-17.3c2.9-1.3,0.4-5.6-2.5-4.3C48.9,40.8,41,47,36,55.8 C34.5,58.6,38.8,61.1,40.4,58.3L40.4,58.3z" class="st0"/></g></g><linearGradient id="SVGID_2_" x1="0" x2="200" y1="100" y2="100" gradientUnits="userSpaceOnUse"><stop offset="0" stop-color="#3F74B9"/><stop offset=".56" stop-color="#359EC7"/><stop offset="1" stop-color="#2EBBD1"/></linearGradient><circle cx="100" cy="100" r="100" class="st1"/><g><g><path d="M90.9,122.8h23.9v-14.4H90.9V122.8z M102.9,113.3c1.3,0,2.4,1.1,2.4,2.4s-1.1,2.4-2.4,2.4 c-1.3,0-2.4-1.1-2.4-2.4S101.5,113.3,102.9,113.3z" class="st2"/><path d="M135.9,74.9c-12.6,0-20.2-2.4-24.4-4.3c-4.2-2-5.8-4-6-4.2c-0.9-1.4-2.8-1.5-3.8-0.2 c-0.1,0.2-2.1,2.3-6.7,4.3c-4.5,2-12.5,4.4-25.2,4.4c-1.3,0-2.4,1.1-2.4,2.4v38.3c0,9.7,6.1,18.2,17.8,24.6 c7.9,4.3,16.7,6.6,17.7,6.6c0.8,0,9.6-2.2,17.7-6.6c11.6-6.3,17.8-14.8,17.8-24.6V77.3C138.3,76,137.2,74.9,135.9,74.9z M119.6,125.2c0,1.3-1.1,2.4-2.4,2.4H88.5c-1.3,0-2.4-1.1-2.4-2.4v-19.2c0-1.3,1.1-2.4,2.4-2.4h2.4v-7.3c0-6.3,5-11.9,12-11.9 c6.5,0,11.9,5.3,11.9,11.9c0,1.3-1.1,2.4-2.4,2.4c-1.3,0-2.4-1.1-2.4-2.4c0-3.7-2.9-7.1-7.2-7.1c-3.9,0-7.1,3.2-7.1,7.1v7.3h21.5 c1.3,0,2.4,1.1,2.4,2.4V125.2z" class="st2"/></g></g><g><g><linearGradient id="SVGID_3_" x1="36.444" x2="60.048" y1="48.043" y2="48.043" gradientUnits="userSpaceOnUse"><stop offset="0" stop-color="#FFF"/><stop offset="1" stop-color="#FFF"/></linearGradient><path d="M46.8,62.1c3.7-6.6,9.6-11.1,17.5-14.6c4.9-2.2,6.1-9.4,3.6-13.7c-3-5.1-8.7-5.8-13.7-3.6 C44,34.8,35.1,42.2,29.6,52C23.3,63.3,40.5,73.4,46.8,62.1L46.8,62.1z" class="st3"/></g></g></svg>