<svg xmlns="http://www.w3.org/2000/svg" xmlns:xlink="http://www.w3.org/1999/xlink" viewBox="0 0 792 173.55"><defs><style>.cls-1{fill:none;}.cls-2{isolation:isolate;}.cls-3{clip-path:url(#clip-path);}.cls-4{clip-path:url(#clip-path-2);}.cls-14,.cls-5{fill:#635c52;}.cls-5{opacity:0.5;}.cls-5,.cls-7{mix-blend-mode:color-burn;}.cls-6{fill:#9f8d7d;}.cls-7{opacity:0.2;}.cls-8{fill:#c1b6a5;}.cls-9{fill:#5a534a;}.cls-10{fill:#b8ae9c;}.cls-11{fill:#504a40;}.cls-12{fill:#898277;}.cls-13{fill:#988e84;}.cls-15{fill:#c6bdb1;}.cls-16{fill:#a19690;}.cls-17{fill:#ab9f91;}.cls-18{fill:#817b71;}.cls-19{fill:#706966;}</style><clipPath id="clip-path"><rect class="cls-1" y="-439.78" width="792" height="614.76"/></clipPath><clipPath id="clip-path-2"><path class="cls-1" d="M-.26,17.77S40,31.26,50.38,36.8c2.33,1.25-1.82,42.62-1.82,42.62l31.07-24.5,55.89,6.19,40.31,31.27,37-13.65,15.08,5.78,56.42,9.87S329.1,50.44,335.67,50.8c24.83,1.37,79.08-5.63,81.87-3.62,2.63,1.88,17.9,45.31,17.9,45.31s27.81-5.77,48.17-13.3c1.73-.64,45,10.44,45,10.44l28,23.23,21.09,13.61S595.09,86.62,597,86.13c0,0,74.11-39.88,77.88-39.68,3.41.18,32.85,34.9,32.85,34.9s20.39-17.58,28.25-21.79C748.79,52.68,792,40.86,792,40.86V173.55H0Z"/></clipPath></defs><title>Seafloor</title><g class="cls-2"><g id="Layer_2" data-name="Layer 2"><g class="cls-3"><g id="Layer_3" data-name="Layer 3"><g class="cls-4"><path class="cls-5" d="M50.38,36.8c2.33,1.25-1.82,42.62-1.82,42.62l31.07-24.5,55.89,6.19,40.31,31.27,37-13.65,15.08,5.78,56.42,9.87S329.1,50.44,335.67,50.8c24.83,1.37,79.08-5.63,81.87-3.62,2.63,1.88,17.9,45.31,17.9,45.31s27.81-5.77,48.17-13.3c1.73-.64,45,10.44,45,10.44l28,23.23,21.09,13.61S595.09,86.62,597,86.13c0,0,74.11-39.88,77.88-39.68,3.41.18,32.85,34.9,32.85,34.9s20.39-17.58,28.25-21.79C748.79,52.68,792,40.86,792,40.86V107.2l6.19-1.57-.64-86.8L0-4.5-2.33,78.76V126l2.25.68L-.26,17.77S40,31.26,50.38,36.8Z"/><path class="cls-6" d="M55.8,141.06l55.92-15.26,18.18,11.41,25.27-23.66,45.3,18.92,44.62,5.22,6.7-1.72,48.38-6.07,85,12.61,22.85-4.82L417.15,127l66.46-10L571.87,157l36.61,16.57L667,158.71l42.93-32.57,51.74-2.09L768,113.29l24-6.09V40.86s-43.21,11.82-56.06,18.7c-7.86,4.21-28.25,21.79-28.25,21.79s-29.44-34.72-32.85-34.9C671.07,46.25,597,86.13,597,86.13c-1.87.49-19.29,40.34-19.29,40.34l-21.09-13.61-28-23.23s-43.24-11.08-45-10.44c-20.36,7.53-48.17,13.3-48.17,13.3s-15.27-43.43-17.9-45.31c-2.79-2-57,5-81.87,3.62-6.57-.36-51.34,43.58-51.34,43.58l-56.42-9.87-15.08-5.78-37,13.65L135.52,61.11,79.63,54.92,48.56,79.42s4.15-41.37,1.82-42.62C40,31.26-.26,17.77-.26,17.77l.18,108.92,36.7,11.13Z"/><path class="cls-5" d="M55.8,141.06l55.92-15.26,18.18,11.41,25.27-23.66,45.3,18.92,44.62,5.22,6.7-1.72,48.38-6.07,85,12.61,22.85-4.82L417.15,127l66.46-10L571.87,157l36.61,16.57L667,158.71l42.93-32.57,51.74-2.09L768,113.29l24-6.09V40.86s-43.21,11.82-56.06,18.7c-7.86,4.21-28.25,21.79-28.25,21.79s-29.44-34.72-32.85-34.9C671.07,46.25,597,86.13,597,86.13c-1.87.49-19.29,40.34-19.29,40.34l-21.09-13.61-28-23.23s-43.24-11.08-45-10.44c-20.36,7.53-48.17,13.3-48.17,13.3s-15.27-43.43-17.9-45.31c-2.79-2-57,5-81.87,3.62-6.57-.36-51.34,43.58-51.34,43.58l-56.42-9.87-15.08-5.78-37,13.65L135.52,61.11,79.63,54.92,48.56,79.42s4.15-41.37,1.82-42.62C40,31.26-.26,17.77-.26,17.77l.18,108.92,36.7,11.13Z"/><polygon class="cls-6" points="768.03 113.29 761.67 124.05 709.93 126.14 667 158.71 608.48 173.52 571.87 156.95 483.61 117.03 417.15 127.02 408.06 137.69 385.21 142.51 300.17 129.9 251.79 135.97 245.09 137.69 200.47 132.47 155.17 113.55 129.9 137.21 111.72 125.8 55.8 141.06 36.62 137.82 -0.08 126.69 0 173.55 792 173.55 792 107.2 768.03 113.29"/><g class="cls-7"><path class="cls-8" d="M114.81,127.71l.84-.72c3.58.18,5.55-1.61,6.16-5l0,0a1.79,1.79,0,0,0,2-1l0,0,1-1-.07,0a9.8,9.8,0,0,0,6.49-3.16,31.06,31.06,0,0,1,15.36-10.19,51,51,0,0,0,11.24-5C167,95.88,178,94.88,187.41,89.46c5.8-3.34,12.82-4.84,19-8,3.13-1.61,10.12-.2,11.51,3.1,2.1,5,5.63,9,8.16,13.67,3.44,6.36,4.3,12.13-1.11,18.09a107.63,107.63,0,0,1-11,10c-17.52,14.6-37.16,26.11-55.84,39a4.33,4.33,0,0,1-4.28.54c-7.51-3.41-15.16-6.43-22.88-9.32-8.66-3.23-16.88-7.65-26.06-9.43-2.95-.41-5.12-2.18-7.22-4.09,3.51-4.29,8.08-7.41,12.11-11.12C112.72,132.61,113.67,131.83,114.81,127.71Z"/><path class="cls-9" d="M352.3,144.57c1.69.34,2.43,1.39,2.68,3.1,1.91,12.77,6.45,24.65,12.52,36,1.27,2.35.91,3.59-1.37,5.11C358,194.17,350,199.86,342,205.47a8.48,8.48,0,0,1-4.6,1.58c-22.91,1.23-45.81,2.54-68.71,3.8-1.62.09-3.33.5-4.81-.63a15.21,15.21,0,0,0,1.16-6c-.15-9.42-3.41-18.39-3.66-27.83-.09-3.34.09-7-1.42-10.23,10-4.43,20.1-8.83,30.13-13.29,4.85-2.16,9.51-4.64,15.08-4.75a248.91,248.91,0,0,0,24.9-1.28C337.45,145.91,345,146.87,352.3,144.57Z"/><path class="cls-10" d="M104.88,147.07c9.18,1.78,17.4,6.2,26.06,9.43,7.72,2.89,15.37,5.91,22.88,9.32a4.33,4.33,0,0,0,4.28-.54c18.68-12.91,38.32-24.42,55.84-39a107.63,107.63,0,0,0,11-10c5.41-6,4.55-11.73,1.11-18.09-2.53-4.67-6.06-8.67-8.16-13.67-1.39-3.3-8.38-4.71-11.51-3.1-6.14,3.17-13.16,4.67-19,8C178,94.88,167,95.88,157.88,101.59a51,51,0,0,1-11.24,5,31.06,31.06,0,0,0-15.36,10.19,9.8,9.8,0,0,1-6.49,3.16,31.67,31.67,0,0,1,14.55-12.88c20.26-8.79,41.2-16.1,61.13-25.57,9-4.29,15.78-3.42,23.29,1.51a19.32,19.32,0,0,0,4.15,1.51c4.77,4.6,11.19,6.18,17,8.84,4.55,2.1,5.78,4.9,5,9.34-1.67,9.64-2,19.44-3.14,29.12C246,138,247,145,242.06,150.2c-2.54-1-2.37,1.48-2.94,2.55-2.8,5.14-6.9,8-12.82,8.33-1.49.07-3.4-.83-4.29,1.33l-48.81,26a20.43,20.43,0,0,0-2.66-2.2c-14.55-8.58-29.22-17-43.65-25.74C119.55,156,111.6,152.53,104.88,147.07Z"/><path class="cls-11" d="M173.2,188.41l48.81-26,.92.54a12.14,12.14,0,0,0,1.59,6.18c4.63,9.41,9.33,18.8,14.21,28.08,1.09,2.08,1.4,4.91,4.18,5.85a9.39,9.39,0,0,1,1.07,5.17c-18.78,3.94-37.44,8.64-56.38,11.53-10.81,1.65-22.08,1.14-33.1-.36,5.39-7.43,9.76-15.5,14.3-23.45q.1-.45.18-.9l0,.09C171.14,193.39,172,190.77,173.2,188.41Z"/><path class="cls-12" d="M168.8,196c-4.54,8-8.91,16-14.3,23.45q-29.66-25.78-59.33-51.54c-1.47-1.28-2.49-2.6-2.18-4.67.92-6.16,1.33-12.43,3.91-18.24.92.69,1.79,1.46,2.76,2.05,21,12.66,42.36,24.84,63,38.13,3.85,2.48,6,5.49,6.25,10l0-.09c-.14.07-.42.16-.42.2A5.78,5.78,0,0,0,168.8,196Z"/><path class="cls-13" d="M352.3,144.57c-7.26,2.3-14.85,1.34-22.26,2.24a248.91,248.91,0,0,1-24.9,1.28c-5.57.11-10.23,2.59-15.08,4.75-10,4.46-20.09,8.86-30.13,13.29l-1-.26c.34-10.87-3.7-21.09-4.63-31.8-.8-9.21-2.55-18.34-3.33-27.55-.63-7.53,2.31-10,9.47-8,9.27,2.56,18.88,3.38,28.12,6.12,2.86.85,6.26,1.54,9.44.25,1.59,1,3.29,2,4.35,3.65l-.49.56a146,146,0,0,1-33.36-6.66c-3.59-1.1-4.91.27-4.67,3.89.12,1.87.18,3.74,1.35,5.22,3.06,3.89,5.7,8.06,9.17,11.72,6.31,6.68,13.73,12,20.52,18.11,2.69,2.42,5.67,4.17,9.81,3.78,10.16-.95,20.36-1.45,30.55-2a10.92,10.92,0,0,0,6-1.64c-7.43-6.88-15.88-12.12-23.47-18.46-4.87-4-10.75-7-13.88-12.93l.29-.3q23.69,16.77,47.35,33.57C351.91,143.59,352.05,144.15,352.3,144.57Z"/><path class="cls-12" d="M298,104.87c-3.18,1.29-6.58.6-9.44-.25-9.24-2.74-18.85-3.56-28.12-6.12-7.16-2-10.1.49-9.47,8,.78,9.21,2.53,18.34,3.33,27.55.93,10.71,5,20.93,4.63,31.8l-21.08-2.76-1.17-.52c.93-4.49,4-8.06,5.34-12.39,5-5.24,3.91-12.16,4.67-18.39,1.17-9.68,1.47-19.48,3.14-29.12.77-4.44-.46-7.24-5-9.34-5.76-2.66-12.18-4.24-17-8.84,17.55,2.58,35.09,5.2,52.66,7.69,3.18.45,5.48,2.18,7.74,4.14C291.57,99.17,294.8,102,298,104.87Z"/><path class="cls-14" d="M237.89,163.11,259,165.87l1,.26c1.51,3.26,1.33,6.89,1.42,10.23.25,9.44,3.51,18.41,3.66,27.83a15.21,15.21,0,0,1-1.16,6l-2-.26a.91.91,0,0,0-1.33-.36l-.09,0-.06-.88-.62.66L257.9,209c-.83-2.73-2.32-2.28-4-.84l-9.9.1a9.39,9.39,0,0,0-1.07-5.17c-.22-8.94-3.55-17.36-4.43-26.15C238,172.36,234.86,167.82,237.89,163.11Z"/><path class="cls-15" d="M168.93,195.14c-.2-4.52-2.4-7.53-6.25-10-20.66-13.29-42-25.47-63-38.13-1-.59-1.84-1.36-2.76-2.05a2,2,0,0,1,.76-2c2.1,1.91,4.27,3.68,7.22,4.09,6.72,5.46,14.67,8.94,22,13.4,14.43,8.77,29.1,17.16,43.65,25.74a20.43,20.43,0,0,1,2.66,2.2C172,190.77,171.14,193.39,168.93,195.14Z"/><path class="cls-10" d="M121.81,122c-.61,3.43-2.58,5.22-6.16,5C117.52,125.08,119,122.71,121.81,122Z"/><path class="cls-10" d="M123.87,121a1.79,1.79,0,0,1-2,1A1.41,1.41,0,0,1,123.87,121Z"/><path class="cls-13" d="M302.39,108.52l1.81,1.24-.29.3a2,2,0,0,1-2-1Z"/><path class="cls-10" d="M124.86,120l-1,1C123.75,120.23,124.08,119.9,124.86,120Z"/><path class="cls-15" d="M242.06,150.2c-1.33,4.33-4.41,7.9-5.34,12.39l-13.79.36-.92-.54c.89-2.16,2.8-1.26,4.29-1.33,5.92-.3,10-3.19,12.82-8.33C239.69,151.68,239.52,149.21,242.06,150.2Z"/><path class="cls-9" d="M222.93,163l13.79-.36,1.17.52c-3,4.71.14,9.25.59,13.8.88,8.79,4.21,17.21,4.43,26.15-2.78-.94-3.09-3.77-4.18-5.85-4.88-9.28-9.58-18.67-14.21-28.08A12.14,12.14,0,0,1,222.93,163Z"/><path class="cls-16" d="M301.9,109.08a2,2,0,0,0,2,1c3.13,5.92,9,8.88,13.88,12.93,7.59,6.34,16,11.58,23.47,18.46a10.92,10.92,0,0,1-6,1.64c-10.19.6-20.39,1.1-30.55,2-4.14.39-7.12-1.36-9.81-3.78-6.79-6.09-14.21-11.43-20.52-18.11-3.47-3.66-6.11-7.83-9.17-11.72-1.17-1.48-1.23-3.35-1.35-5.22-.24-3.62,1.08-5,4.67-3.89A146,146,0,0,0,301.9,109.08Z"/><path class="cls-13" d="M248.92,142Q264,120.32,279.07,98.64A11,11,0,0,1,280.89,97a16.34,16.34,0,0,0,3-.11c12.73-2.86,25.45-5.8,38.18-8.67,9.61-2.17,19.63-2.46,28.95-6,9.33-1.45,18.7-2.67,28-4.46,3.53-.68,4.86-.11,5.22,3.52.72,7.21,1.76,14.38,2.67,21.57.59,10.07-.68,20.22,1.13,30.25.05.63.11,1.27.16,1.91a23.84,23.84,0,0,0-6.84,1.13c-8.75,2.47-17.61,4.53-26.28,7.22-9,2.78-18.32,4.18-27,7.82l-9-.07h-4a5.48,5.48,0,0,0-1.72-.84c-20.54-1.59-40.91-4.62-61.36-7C250.84,143,249.54,143.37,248.92,142Z"/><path class="cls-9" d="M459.37,140.85c2.23,12.06,4.26,24.07,1.26,36.36-4.82,19.7-8.32,39.7-12.95,59.47-1.37,5.85-3.45,7.81-8.24,9.43-10.2,3.46-20.3,7.27-30.44,10.94-1.53-1.62-3.26-.62-5-.55-4.05.14-6.87,3.8-11,3.56.18-1,.32-1.93.56-2.87.34-1.34,3.57-2.18,1.28-3.76-1.53-1.06-3,1-3.69,2.46-1.65,3.59-5.78,3.48-8.35,5.78-1.24,1.11-2.34-2.09-4-2.15-2.57-.08-4.14-2.7-6.78-2.46a78.85,78.85,0,0,1,21.76-12.28c12.69-4.77,25.61-8.89,38.43-13.31,3.38-1.16,6.09-5.63,4.47-8.48-2.06-3.65-2.33-7.48-3-11.38-2.21-12.49-5.81-24.69-7.89-37.23-.51-3.11-1.25-6.87-4.9-8.54l2.31-2.77a8.89,8.89,0,0,0,2.85-.67Q442.73,151.69,459.37,140.85ZM402.25,248.62c-2.81-.24-3.82,1.1-5.09,2.92C399.5,251.75,400.75,250.9,402.25,248.62Z"/><path class="cls-17" d="M351,82.17c-9.32,3.59-19.34,3.88-28.95,6-12.73,2.87-25.45,5.81-38.18,8.67a16.34,16.34,0,0,1-3,.11c12.58-13,26.38-24.85,38.93-37.89,6.69-6.94,13.83-9.06,23.15-9.26,20.6-.43,41.19-1.68,61.8-1.91,4.13,0,8.23-1.47,12.38-.31C413.52,53,407.64,55.75,403,60c-5.32,4.9-11.89,8.36-16.37,14.23-8.87-.41-17,3.27-25.51,4.84C357.75,79.69,353.88,79.53,351,82.17Z"/><path class="cls-18" d="M386.67,74.23C391.15,68.36,397.72,64.9,403,60c4.6-4.25,10.48-7,14.11-12.37,1.52-.53,2.37-.14,3,1.52q10,28.49,20.13,57c.14.4-.09.93-.15,1.4-.3,5.17-1.2,9.36-8.16,8.94-2.51-.16-5.49,1.58-7.68,3.23a17.84,17.84,0,0,1-9.07,3.5c-3.69.45-7.74.84-8.8,5.75a3.1,3.1,0,0,1-2.68,2c-5.23.72-10.47,1.41-15.7,2.11-1.81-10-.54-20.18-1.13-30.25Q386.77,88.52,386.67,74.23Z"/><path class="cls-12" d="M305,264.12c-3.09-.94-4.45-3.81-6.44-5.93-15.79-16.88-31.48-33.86-47.33-50.69a11.52,11.52,0,0,1-3.4-8.84c.29-18.13.31-36.26.42-54.4,2.26,1.74,1.1,4.84,2.73,6.83.22,1.3.36,2.63.69,3.91,2.86,11.23,7.8,21.93,8.57,33.7a5.22,5.22,0,0,0,1.89,3.39c10.49,10.21,20.86,20.55,31.47,30.64,1.81,1.72,3.44,4.16,6.4,4.4h0c-.13,1.46.59,2.09,2,2v0a.94.94,0,0,0,1,1l0,0a1.65,1.65,0,0,0,1,2l0,0,1,.86a40.77,40.77,0,0,1,9,9.16c2,3.34,4.31,6.43,8.06,8h0c.55,3.05-1.88,4.93-2.92,7.35C314.55,260.17,309.06,260.68,305,264.12Z"/><path class="cls-19" d="M388,133.05c5.23-.7,10.47-1.39,15.7-2.11a3.1,3.1,0,0,0,2.68-2c1.06-4.91,5.11-5.3,8.8-5.75a17.84,17.84,0,0,0,9.07-3.5c2.19-1.65,5.17-3.39,7.68-3.23,7,.42,7.86-3.77,8.16-8.94q8,13.41,16.05,26.82c1.24,2.09,3.1,3.89,3.24,6.53Q442.71,151.65,426,162.4a8.89,8.89,0,0,1-2.85.67c-2.22-1.7-4.48-3.33-6.65-5.09q-14.2-11.47-28.37-23Z"/><path class="cls-10" d="M252,151.08c.75-2.63-1.56-5.24-.06-7.88,20.45,2.38,40.82,5.41,61.36,7A5.48,5.48,0,0,1,315,151c.67,1.06,1.34,1.05,2,0h2c3.42,3.5,8.2,4.77,12.18,7.41,2.47,1.64,4,5.16,7.84,4.57h0c.1,2.65,1.85,3.11,4,3l30.16,23.33C363.8,202.68,354.47,216,345,229.24c-4.69,6.52-10.56,12.19-14,19.62a7.94,7.94,0,0,1-3.62,3.3c-2.28.59-3.39-1.95-5.42-2h0a12.52,12.52,0,0,0-8.06-8,40.77,40.77,0,0,0-9-9.16l-1-.86,0,0a1.88,1.88,0,0,0-1-2l0,0-1-1v0c0-1.35-.63-2-2-2h0c-3.64-6.8-9.94-11.23-15.08-16.67-6.36-6.71-14-12.56-18-21A350.68,350.68,0,0,1,252,151.08Zm16.18-3c-5.51-.07-7.92,2.69-6.86,7.28.38,1.64.4,3.3.77,4.88,2,8.72,4.93,17.29,9.69,24.74,4.4,6.89,11.4,11.79,16.8,18.08,7.85,9.14,17.13,17,25.47,25.79,2.41,2.53,3.28,1.67,4.78-.4,8.49-11.76,17.85-22.88,25-35.59,3.26-5.76,3.35-9.16-1.55-13.42-4.34-3.77-8.28-7.95-12.83-11.54-6.92-5.46-13.34-11.62-22.62-12.67a237.05,237.05,0,0,1-25.42-4.17Z"/><path class="cls-17" d="M373.2,189.39,343,166.06c-.94-1.53-2-2.92-4-3h0a59.54,59.54,0,0,0-5-5.26c-2.34-1.95-5.3-3.25-6-6.65,8.7-3.64,18.06-5,27-7.82,8.67-2.69,17.53-4.75,26.28-7.22a23.84,23.84,0,0,1,6.84-1.13q14.18,11.52,28.37,23c2.17,1.76,4.43,3.39,6.65,5.09l-2.31,2.77c-2.26.1-4.06,1.38-6,2.35Q394,178.77,373.2,189.39Z"/><path class="cls-15" d="M386.67,74.23q.1,14.3.19,28.57c-.91-7.19-1.95-14.36-2.67-21.57-.36-3.63-1.69-4.2-5.22-3.52-9.27,1.79-18.64,3-28,4.46,2.88-2.64,6.75-2.48,10.16-3.1C369.67,77.5,377.8,73.82,386.67,74.23Z"/><path class="cls-8" d="M328,151.13c.7,3.4,3.66,4.7,6,6.65a59.54,59.54,0,0,1,5,5.26c-3.8.59-5.37-2.93-7.84-4.57-4-2.64-8.76-3.91-12.18-7.41Z"/><path class="cls-8" d="M317,151.05c-.67,1-1.34,1-2,0Z"/><path class="cls-14" d="M373.2,189.39q20.85-10.6,41.69-21.2c1.91-1,3.71-2.25,6-2.35,3.65,1.67,4.39,5.43,4.9,8.54,2.08,12.54,5.68,24.74,7.89,37.23.69,3.9,1,7.73,3,11.38,1.62,2.85-1.09,7.32-4.47,8.48-12.82,4.42-25.74,8.54-38.43,13.31A78.85,78.85,0,0,0,372,257.06c-6.06,2.34-12.23.24-18.14-.3-8.84-.8-17.76-1.14-26.55-2.65l0-2a7.94,7.94,0,0,0,3.62-3.3c3.43-7.43,9.3-13.1,14-19.62C354.47,216,363.8,202.68,373.2,189.39Z"/><path class="cls-15" d="M252,151.08a350.68,350.68,0,0,0,14.93,38.38c4,8.44,11.6,14.29,18,21,5.14,5.44,11.44,9.87,15.08,16.67-3-.24-4.59-2.68-6.4-4.4-10.61-10.09-21-20.43-31.47-30.64a5.22,5.22,0,0,1-1.89-3.39c-.77-11.77-5.71-22.47-8.57-33.7-.33-1.28-.47-2.61-.69-3.91Z"/><path class="cls-8" d="M268.17,148.08l13.25,3a237.05,237.05,0,0,0,25.42,4.17c9.28,1.05,15.7,7.21,22.62,12.67,4.55,3.59,8.49,7.77,12.83,11.54,4.9,4.26,4.81,7.66,1.55,13.42-7.17,12.71-16.53,23.83-25,35.59-1.5,2.07-2.37,2.93-4.78.4-8.34-8.75-17.62-16.65-25.47-25.79-5.4-6.29-12.4-11.19-16.8-18.08-4.76-7.45-7.68-16-9.69-24.74-.37-1.58-.39-3.24-.77-4.88C260.25,150.77,262.66,148,268.17,148.08Z"/><path class="cls-8" d="M339,163c2,.1,3.07,1.49,4,3C340.88,166.15,339.13,165.69,339,163Z"/><path class="cls-16" d="M492.54,81.07a213.08,213.08,0,0,1,24.07,5.31c8.76,9.07,20,14.91,29.86,22.57,11.21,8.7,21.76,17.66,29.25,29.8,2.26,3.65,4,7.64,6.31,11.24,3.66,5.67,3.3,7.24-2.77,9.95-8.53,3.81-17.14,7.46-25.46,11.68-3.13,1.59-5.11,1.43-7.48-.87-5.8-5.63-11.42-11.44-17.79-16.52-3.8-3-7.57-5.39-12.38-5.17s-7.94-1.77-10.31-5.56c-4.12-6.58-8-13.42-13.22-19.14-5.52-6-6.79-12.81-6.14-20.56.41-4.8,0-9.66.09-14.49,0-3.64-1.54-8.65,5.43-7A8.83,8.83,0,0,0,492.54,81.07Z"/><path class="cls-13" d="M492.54,81.07a8.83,8.83,0,0,1-.54,1.28c-7-1.69-5.39,3.32-5.43,7-.06,4.83.32,9.69-.09,14.49-.65,7.75.62,14.56,6.14,20.56,5.25,5.72,9.1,12.56,13.22,19.14,2.37,3.79,5.59,5.78,10.31,5.56s8.58,2.14,12.38,5.17c6.37,5.08,12,10.89,17.79,16.52,2.37,2.3,4.35,2.46,7.48.87,8.32-4.22,16.93-7.87,25.46-11.68,6.07-2.71,6.43-4.28,2.77-9.95-2.32-3.6-4-7.59-6.31-11.24-7.49-12.14-18-21.1-29.25-29.8-9.86-7.66-21.1-13.5-29.86-22.57a34.11,34.11,0,0,1,18.83,7.89c13.08,11,25.46,23,40.85,31a5.94,5.94,0,0,1,2,2.13c11,17.21,22.17,34.3,31.1,52.72-2.13,1.24-4.22,2.55-6.39,3.72Q584.29,193.92,565.55,204c-4.15-3.28-8.09-6.86-12.47-9.79-10.83-7.24-18.7-19.49-33.51-20.08-7.79-.33-11.86-5.46-15.19-11.64-.34-.64-1.23-1-1.86-1.46l0,0-1-1,.05.05L500.5,159l.06.07c-.05-.85,0-1.72-1.06-2.08l.06.08c0-.85-.09-1.69-1.05-2.07l0,.06a1.87,1.87,0,0,0-1.36-2.08c-2.6-1.72-3.94-4.34-5.15-7.06-2.06-4.68-5.39-8.44-8.76-12.18L483.55,88l.06-8.81C486.72,79.17,489.58,80.36,492.54,81.07Z"/><path class="cls-13" d="M365.6,177.25c15.91-1.09,31.82-2.36,47.75-3.16,4.44-.23,4.95-1.65,2.78-4.83-8.6-12.66-6.57-27-6.63-41a7.45,7.45,0,0,1,1-3.28c4-7.64,8.08-15.26,12.14-22.88,1.38,4.88,1.15,10,1.94,14.92.91,5.64.33,11.44,1.95,17-.26,2.39.79,4.49,1.39,6.7,2.49,9.13,6.41,17.86,7.63,27.35a7.37,7.37,0,0,1,0,.94c-4.44,4.12-12.27,6.37-13.34,11.71S425.33,192.16,427,198c1.2,4.22,3.88,8.08,3.28,12.76l-6.81,2.05c-1.42-1.44-3.06-.85-4.66-.46-6.1,1.48-12.15,3.16-18.3,4.37a14.18,14.18,0,0,1-9.26-.86c-3.7-1.82-7.65-3.13-11.33-5-8-4-17.15-6.06-22.52-14.38-1.52-2.36-2.06-3.61-.08-5.91C360.74,186.61,364,182.43,365.6,177.25Z"/><path class="cls-8" d="M426.53,134c-1.62-5.55-1-11.35-1.95-17-.79-5-.56-10-1.94-14.92,1.5-5.55,5.27-8.08,10.81-9.38,10-2.33,19.82-5.34,29.7-8.11a11.78,11.78,0,0,1,4.88-.68c1.87.25,4.48-.31,4.05,2.88-1.34,10,.7,20.27-1.64,30.19-.86,3.67.77,8.1-2.63,11-8.1,6.86-18,11.12-26.4,17.52-2.39,1.81-4.08,1.51-6.14-1.06C432.44,140.9,430.81,136.3,426.53,134Z"/><path class="cls-10" d="M426.53,134c4.28,2.31,5.91,6.91,8.74,10.43,2.06,2.57,3.75,2.87,6.14,1.06,8.43-6.4,18.3-10.66,26.4-17.52,3.4-2.88,1.77-7.31,2.63-11,2.34-9.92.3-20.16,1.64-30.19.43-3.19-2.18-2.63-4.05-2.88,4.94-2.42,10.3-3.43,15.58-4.72L483.55,88a2.86,2.86,0,0,0-1,2.67c.46,10.27-1.32,20.53-.8,30.73.41,8-2.29,13-8.84,17.15-2.84,1.78-6.81,3.17-7.32,7.51v0a1.73,1.73,0,0,0-2,1h0c-1.4-.06-2.06.62-2,2v0c-2.24-.18-4,.33-4,3l0,0c-1,0-1.83.27-2,1.43-2.93,3.87-7.42,5.79-11,8.82-2.7,2.25-5.1,5.26-9,5.76-1.22-9.49-5.14-18.22-7.63-27.35C427.32,138.48,426.27,136.38,426.53,134Z"/><path class="cls-18" d="M507.45,176.05c-3.35,2.88-5.75,6.82-9.82,8.93-.36.44-.73.88-1.09,1.33l.12.35c-.36.46-.73.91-1.1,1.36h0a2.5,2.5,0,0,0-2.21,1.08c-10-2.41-19.23-6.85-28.9-10.12s-18.84-8-28.94-10a7.37,7.37,0,0,0,0-.94c3.9-.5,6.3-3.51,9-5.76,3.62-3,8.11-4.95,11-8.82l2-1.43,0,0a5.56,5.56,0,0,0,4-3v0c1.2-.13,2.13-.55,2-2h0a1.53,1.53,0,0,0,2-1v0c6.56-3.16,11.46-8.7,17.67-12.35,3.37,3.74,6.7,7.5,8.76,12.18,1.21,2.72,2.55,5.34,5.15,7.06.46.69.91,1.39,1.36,2.08l0-.06,1.05,2.07-.06-.08c.35.7.71,1.39,1.06,2.08l-.06-.07,1.06,1.06-.05-.05,1,1,0,0c-.33,2.24,1.25,3.72,2.32,5.3C506.88,169.28,508,172.41,507.45,176.05Z"/><path class="cls-15" d="M483.28,133.71c-6.21,3.65-11.11,9.19-17.67,12.35.51-4.34,4.48-5.73,7.32-7.51,6.55-4.11,9.25-9.16,8.84-17.15-.52-10.2,1.26-20.46.8-30.73a2.86,2.86,0,0,1,1-2.67Z"/><path class="cls-15" d="M507.45,176.05c.56-3.64-.57-6.77-2.61-9.76-1.07-1.58-2.65-3.06-2.32-5.3.63.48,1.52.82,1.86,1.46,3.33,6.18,7.4,11.31,15.19,11.64C515.4,174,511.16,173.34,507.45,176.05Z"/><path class="cls-15" d="M500.56,159c-.35-.69-.71-1.38-1.06-2.08C500.52,157.32,500.51,158.19,500.56,159Z"/><path class="cls-15" d="M499.56,157,498.51,155C499.47,155.35,499.53,156.19,499.56,157Z"/><path class="cls-15" d="M498.55,155c-.45-.69-.9-1.39-1.36-2.08A1.87,1.87,0,0,1,498.55,155Z"/><path class="cls-15" d="M502.55,161l-1-1Z"/><path class="cls-15" d="M501.56,160,500.5,159Z"/><path class="cls-9" d="M435.55,169c10.1,2,19.27,6.72,28.94,10s18.93,7.71,28.9,10.12q1.69,5.21,3.38,10.41c7.17,11.24.36,21.08-3.11,31.25L492.55,234c-10.72-.84-21.26-2.87-31.88-4.37-7.67-1.08-15.29-2.83-23.12-2.64-2.87-5.2-3.1-11.58-7.27-16.2.6-4.68-2.08-8.54-3.28-12.76-1.67-5.86-5.84-12.09-4.79-17.33S431.11,173.1,435.55,169Z"/><path class="cls-15" d="M461.62,149a5.56,5.56,0,0,1-4,3C457.66,149.37,459.38,148.86,461.62,149Z"/><path class="cls-15" d="M463.61,147.05c.13,1.46-.8,1.88-2,2C461.55,147.67,462.21,147,463.61,147.05Z"/><path class="cls-15" d="M457.62,152l-2,1.43C455.79,152.3,456.6,152,457.62,152Z"/><path class="cls-15" d="M465.61,146a1.53,1.53,0,0,1-2,1A1.73,1.73,0,0,1,465.61,146Z"/><path class="cls-13" d="M557.89,201.29q5.22-25.89,10.46-51.77a10.62,10.62,0,0,1,1-2.23,15.5,15.5,0,0,0,2.69-1.29q15.83-11.52,31.6-23.11c8-5.81,17-10,24.17-17,8-5,16.11-9.87,23.9-15.19,3-2,4.42-2,6.19,1.15,3.52,6.33,7.33,12.5,11,18.74,4.53,9,7.4,18.82,13,27.31l.92,1.7a23.78,23.78,0,0,0-5.83,3.75c-7,5.73-14.37,11.14-21.26,17.06-7.12,6.11-15.16,11.11-21.7,17.91l-8.28,3.5-1.84.78-1.84.79a5.2,5.2,0,0,0-1.91-.09c-19.49,6.69-39.39,12-59.1,17.93C560.05,201.46,559,202.29,557.89,201.29Z"/><path class="cls-9" d="M750.59,116.7c6.83,10.18,13.46,20.39,15.59,32.87,3.4,20,8.13,39.74,11.72,59.72,1.07,5.91-.07,8.54-3.82,11.92-8,7.24-15.74,14.74-23.59,22.13-2-.88-3.25.73-4.83,1.48-3.66,1.75-4.79,6.22-8.66,7.63-.21-.95-.47-1.9-.63-2.86-.22-1.36,2.42-3.41-.32-4-1.82-.36-2.37,2.12-2.41,3.73-.09,3.95-3.91,5.49-5.36,8.62-.7,1.51-3-1-4.54-.38-2.39.95-4.88-.84-7.21.43a79,79,0,0,1,15.1-19.9c9.76-9.41,20-18.33,30-27.47,2.63-2.41,3.35-7.6.73-9.57-3.34-2.52-5.1-5.94-7.28-9.24-7-10.59-15.15-20.36-22-31-1.71-2.65-3.87-5.81-7.88-5.89l1-3.47a8.9,8.9,0,0,0,2.34-1.73C735.93,138.74,743.25,127.71,750.59,116.7Zm-9.65,121.58c-2.67.89-3.07,2.53-3.51,4.7C739.66,242.25,740.47,241,740.94,238.28Z"/><path class="cls-17" d="M627.83,105.85c-7.13,7-16.21,11.23-24.17,17q-15.81,11.55-31.6,23.11a15.5,15.5,0,0,1-2.69,1.29c6.36-17,14.35-33.28,20.69-50.23,3.39-9,9.1-13.81,17.58-17.69,18.73-8.58,37.13-17.89,56-26.29,3.77-1.68,7-4.61,11.24-5.19-1.22,6.34-5.51,11.23-8.05,17-2.93,6.61-7.58,12.4-9.37,19.56-8.31,3.15-14.31,9.75-21.5,14.57C633.05,100.9,629.42,102.28,627.83,105.85Z"/><path class="cls-18" d="M657.42,84.4c1.79-7.16,6.44-13,9.37-19.56,2.54-5.72,6.83-10.61,8.05-17,1.18-1.09,2.12-1.07,3.31.22q20.51,22.19,41.08,44.28c.29.31.29.89.42,1.35,1.78,4.86,2.61,9.07-3.94,11.44-2.37.86-4.41,3.64-5.77,6A17.74,17.74,0,0,1,703,118c-3.21,1.88-6.78,3.84-5.8,8.77a3.11,3.11,0,0,1-1.65,2.92c-4.52,2.74-9.06,5.44-13.59,8.16-5.63-8.49-8.5-18.3-13-27.31Z"/><path class="cls-19" d="M682,137.86c4.53-2.72,9.07-5.42,13.59-8.16a3.11,3.11,0,0,0,1.65-2.92c-1-4.93,2.59-6.89,5.8-8.77a17.74,17.74,0,0,0,6.93-6.82c1.36-2.37,3.4-5.15,5.77-6,6.55-2.37,5.72-6.58,3.94-11.44Q732.36,102.86,745,112c2,1.42,4.39,2.34,5.56,4.71-7.34,11-14.66,22-22.06,33a8.9,8.9,0,0,1-2.34,1.73c-2.71-.67-5.44-1.28-8.13-2q-17.59-4.91-35.17-9.87Z"/><path class="cls-17" d="M690.77,195.44,653.82,186c-1.47-1-3-1.9-4.87-1.18h0a60.17,60.17,0,0,0-6.69-2.84c-2.92-.86-6.15-.88-8.15-3.71,6.54-6.8,14.58-11.8,21.7-17.91,6.89-5.92,14.21-11.33,21.26-17.06a23.78,23.78,0,0,1,5.83-3.75q17.58,4.94,35.17,9.87c2.69.74,5.42,1.35,8.13,2l-1,3.47c-2,1-3.19,2.87-4.56,4.52Q705.67,177.43,690.77,195.44Z"/><path class="cls-15" d="M657.42,84.4l11.52,26.15c-3.69-6.24-7.5-12.41-11-18.74-1.77-3.19-3.22-3.18-6.19-1.15-7.79,5.32-15.91,10.16-23.9,15.19,1.59-3.57,5.22-4.95,8.09-6.88C643.11,94.15,649.11,87.55,657.42,84.4Z"/><path class="cls-14" d="M690.77,195.44q14.93-18,29.84-36c1.37-1.65,2.52-3.54,4.56-4.52,4,.08,6.17,3.24,7.88,5.89,6.88,10.68,15,20.45,22,31,2.18,3.3,3.94,6.72,7.28,9.24,2.62,2,1.9,7.16-.73,9.57-10,9.14-20.24,18.06-30,27.47a79,79,0,0,0-15.1,19.9c-4.62,4.56-11.12,5.08-16.76,6.93-8.43,2.77-16.76,6-25.42,8.11l-.75-1.8c1-1.35,2-2.73,2-4.48.19-8.17,3.32-15.71,5-23.56C684.15,227.33,687.41,211.38,690.77,195.44Z"/><path class="cls-16" d="M757.3,48.66A214.14,214.14,0,0,1,781.51,44c11.64,4.85,24.28,5.74,36.37,8.86,13.73,3.54,27,7.57,38.67,15.74,3.52,2.46,6.69,5.43,10.26,7.81,5.6,3.75,5.89,5.34,1.4,10.24-6.31,6.88-12.77,13.65-18.73,20.83-2.24,2.69-4.12,3.34-7.21,2.17-7.57-2.87-15-6-22.88-8.1-4.7-1.28-9.09-2-13.43.17s-8,1.51-11.67-1c-6.39-4.4-12.63-9.15-19.72-12.31-7.46-3.33-11.33-9.07-13.8-16.44-1.53-4.57-3.8-8.88-5.67-13.34-1.41-3.36-4.85-7.33,2.23-8.54A8.64,8.64,0,0,0,757.3,48.66Z"/><path class="cls-13" d="M757.3,48.66a8.64,8.64,0,0,1,0,1.39c-7.08,1.21-3.64,5.18-2.23,8.54,1.87,4.46,4.14,8.77,5.67,13.34,2.47,7.37,6.34,13.11,13.8,16.44,7.09,3.16,13.33,7.91,19.72,12.31,3.69,2.53,7.43,3.09,11.67,1s8.73-1.45,13.43-.17c7.86,2.13,15.31,5.23,22.88,8.1,3.09,1.17,5,.52,7.21-2.17,6-7.18,12.42-13.95,18.73-20.83,4.49-4.9,4.2-6.49-1.4-10.24-3.57-2.38-6.74-5.35-10.26-7.81-11.7-8.17-24.94-12.2-38.67-15.74-12.09-3.12-24.73-4-36.37-8.86a34.09,34.09,0,0,1,20.42-.23c16.36,4.9,32.49,11,49.78,12.21a5.94,5.94,0,0,1,2.71,1.14c16.91,11.44,34,22.69,49.47,36.05-1.46,2-2.86,4-4.39,5.95q-13.17,16.71-26.4,33.38c-5.11-1.37-10.15-3.09-15.33-4C845,126.09,832.87,118,819,123.31c-7.28,2.78-13.06-.31-18.56-4.65a6.23,6.23,0,0,0-2.29-.61l0,0-1.37-.54.07,0-1.4-.55.09,0c-.38-.76-.72-1.57-1.8-1.49l.09.06c-.37-.78-.76-1.52-1.79-1.5l.07,0a1.89,1.89,0,0,0-2.09-1.37c-3.05-.55-5.33-2.42-7.52-4.44-3.75-3.47-8.3-5.61-12.87-7.7L751.8,58.58l-3.43-8.1C751.21,49.22,754.31,49.18,757.3,48.66Z"/><path class="cls-13" d="M679,187.33c14.17-7.32,28.27-14.81,42.57-21.86,4-2,3.89-3.48.64-5.54-12.92-8.2-16.75-22.18-22.36-35a7.37,7.37,0,0,1-.39-3.41c.64-8.61,1.36-17.21,2.06-25.82,3.21,3.93,5,8.69,7.71,12.92,3.07,4.82,4.84,10.37,8.53,14.82.7,2.3,2.51,3.81,3.94,5.6,5.91,7.39,13,13.85,17.85,22.07a8.47,8.47,0,0,1,.38.87c-2.45,5.54-8.74,10.71-7.6,16s7.41,9.29,11.27,14c2.78,3.4,6.77,5.87,8.08,10.41L746.21,197c-1.88-.76-3.14.44-4.46,1.43-5,3.77-9.9,7.72-15.06,11.27a14.15,14.15,0,0,1-8.84,2.89c-4.12-.2-8.27.16-12.38-.08-8.91-.53-18.14,1.24-26.38-4.27-2.33-1.56-3.32-2.49-2.42-5.39C678.23,197.84,679.57,192.7,679,187.33Z"/><path class="cls-8" d="M717.73,123.43c-3.69-4.45-5.46-10-8.53-14.82-2.7-4.23-4.5-9-7.71-12.92-.82-5.69,1.63-9.51,6.2-12.9,8.24-6.11,16.07-12.77,24-19.23A11.67,11.67,0,0,1,735.94,61c1.81-.51,4-2.06,4.86,1,2.75,9.74,8.69,18.33,10.48,28.36.66,3.71,3.92,7.13,1.94,11.12-4.71,9.52-12.08,17.34-17.28,26.56-1.47,2.61-3.14,3-6.05,1.47C725.89,127.42,722.57,123.86,717.73,123.43Z"/><path class="cls-10" d="M717.73,123.43c4.84.43,8.16,4,12.16,6.11,2.91,1.54,4.58,1.14,6.05-1.47,5.2-9.22,12.57-17,17.28-26.56,2-4-1.28-7.41-1.94-11.12-1.79-10-7.73-18.62-10.48-28.36-.87-3.1-3-1.55-4.86-1,3.57-4.18,8.09-7.23,12.43-10.51l3.43,8.1a2.9,2.9,0,0,0,.17,2.85c4.5,9.24,6.94,19.36,11.46,28.52,3.55,7.17,3.08,12.87-1.31,19.25-1.89,2.76-5,5.61-3.73,9.8v0c-.83.29-1.47.73-1.46,1.73h0a1.7,1.7,0,0,0-1.05,2.65v0c-2.12.72-3.49,1.87-2.48,4.37v0c-.94.4-1.57,1-1.29,2.12-1.15,4.71-4.52,8.26-6.64,12.47-1.58,3.15-2.59,6.86-6,8.86-4.88-8.22-11.94-14.68-17.85-22.07C720.24,127.24,718.43,125.73,717.73,123.43Z"/><path class="cls-18" d="M808.7,129.91c-1.94,4-2.57,8.55-5.47,12.1l-.48,1.65.25.28c-.15.56-.31,1.12-.46,1.69l0,0a2.5,2.5,0,0,0-1.6,1.86c-10.11,1.76-20.37,1.35-30.55,2.19S750,149.81,739.9,152a8.47,8.47,0,0,0-.38-.87c3.38-2,4.39-5.71,6-8.86,2.12-4.21,5.49-7.76,6.63-12.47l1.3-2.12v0a5.5,5.5,0,0,0,2.48-4.37v0c1.06-.61,1.74-1.36,1.05-2.65h0a1.53,1.53,0,0,0,1.46-1.73v0c4.76-5.51,7.06-12.53,11.32-18.35,4.57,2.09,9.12,4.23,12.87,7.7,2.19,2,4.47,3.89,7.53,4.44l2.08,1.37-.07,0,1.79,1.5-.09-.06,1.8,1.49-.09,0,1.4.55-.07,0,1.37.54,0,0c.59,2.18,2.62,2.92,4.23,3.94C805.48,123.93,807.76,126.36,808.7,129.91Z"/><path class="cls-15" d="M769.71,100.65c-4.26,5.82-6.56,12.84-11.32,18.35-1.26-4.19,1.84-7,3.73-9.8,4.39-6.38,4.86-12.08,1.31-19.25-4.52-9.16-7-19.28-11.46-28.52a2.9,2.9,0,0,1-.17-2.85Z"/><path class="cls-15" d="M792.19,114.16l-2.08-1.37A1.89,1.89,0,0,1,792.19,114.16Z"/><path class="cls-9" d="M739.9,152c10.07-2.16,20.35-1.49,30.52-2.32s20.44-.43,30.55-2.19l7.23,8.22c11,7.47,8.7,19.2,9.55,29.92.09,1.14.18,2.28.26,3.42-10.16,3.47-20.65,5.8-31,8.64-7.47,2.05-15.16,3.47-22.27,6.74-4.7-3.62-7.44-9.39-13.1-12-1.31-4.54-5.3-7-8.08-10.41-3.86-4.72-10.16-8.78-11.27-14S737.45,157.51,739.9,152Z"/><path class="cls-15" d="M755.9,123.32a5.5,5.5,0,0,1-2.48,4.37C752.41,125.19,753.78,124,755.9,123.32Z"/><path class="cls-15" d="M757,120.7c.69,1.29,0,2-1.05,2.65A1.7,1.7,0,0,1,757,120.7Z"/><path class="cls-15" d="M753.42,127.65l-1.3,2.12C751.85,128.63,752.48,128.05,753.42,127.65Z"/><path class="cls-15" d="M758.38,119a1.53,1.53,0,0,1-1.46,1.73C756.91,119.71,757.55,119.27,758.38,119Z"/><path class="cls-13" d="M-142.38,61.33q22-14.62,44-29.21a10.7,10.7,0,0,1,2.3-.86,15.45,15.45,0,0,0,2.81,1c12.89,2,25.79,4,38.68,6,9.74,1.52,19.16,4.94,29.15,5,9.2,2.09,18.37,4.41,27.64,6.16,3.54.66,4.56,1.68,3.56,5.19-2,7-3.66,14-5.46,21-3.17,9.58-8.08,18.54-10.1,28.53-.18.62-.36,1.23-.55,1.85a23.7,23.7,0,0,0-6.78-1.48c-9-.93-18-2.28-27.09-3-9.36-.71-18.57-2.86-28-2.67l-8.34-3.38-1.85-.75-1.86-.75c-.42-.48-.75-1.15-1.29-1.41-18.51-9-36.33-19.37-54.47-29.12C-141,63-142.3,62.82-142.38,61.33Z"/><path class="cls-9" d="M53.7,137.77c-2.37,12-4.9,23.94-12.22,34.27-11.73,16.54-22.36,33.85-33.94,50.52-3.43,4.93-6.09,6-11.13,5.73-10.77-.54-21.56-.71-32.33-1-.83-2.07-2.81-1.78-4.47-2.36-3.81-1.36-7.78,1-11.51-.73.52-.83,1-1.68,1.58-2.47.81-1.12,4.12-.7,2.57-3-1-1.54-3.17-.18-4.34.93-2.85,2.73-6.65,1.12-9.89,2.31-1.56.57-1.4-2.81-2.94-3.48-2.36-1-2.86-4-5.4-4.79a78.86,78.86,0,0,1,24.75-3.4c13.55.24,27.09,1.17,40.63,1.79,3.57.16,7.74-3,7.29-6.25-.58-4.14.59-7.8,1.38-11.68,2.55-12.43,3.69-25.1,6.38-37.53.66-3.08,1.37-6.84-1.41-9.74l3.17-1.73a8.72,8.72,0,0,0,2.88.43C27.75,143,40.72,140.37,53.7,137.77Zm-92.8,79.15c-2.52-1.26-4-.38-5.8.84C-42.8,218.82-41.33,218.49-39.1,216.92Z"/><path class="cls-17" d="M-25.43,43.3c-10-.1-19.41-3.52-29.15-5-12.89-2-25.79-4-38.68-6a15.45,15.45,0,0,1-2.81-1c16.49-7.5,33.68-13.39,50.14-20.88,8.78-4,16.2-3.33,24.94-.08,19.31,7.18,38.91,13.6,58.16,21C41,32.76,45.36,33,48.79,35.56c-5.35,3.62-11.84,4-17.68,6.29-6.74,2.6-14.13,3.4-20.45,7.21-8.1-3.66-17-3.23-25.51-4.9C-18.24,43.49-21.79,41.9-25.43,43.3Z"/><path class="cls-18" d="M10.66,49.06c6.32-3.81,13.71-4.61,20.45-7.21C37,39.6,43.44,39.18,48.79,35.56c1.61.06,2.26.73,2.19,2.5-.8,20.11-1.51,40.23-2.27,60.35,0,.43-.43.84-.65,1.25-2.19,4.69-4.57,8.26-10.88,5.31-2.28-1.07-5.69-.56-8.33.17a17.83,17.83,0,0,1-9.72-.08c-3.61-.94-7.51-2.08-10.31,2.1a3.1,3.1,0,0,1-3.23.89c-5.13-1.26-10.25-2.55-15.38-3.83,2-10,6.93-19,10.1-28.53Z"/><path class="cls-19" d="M-9.79,104.22c5.13,1.28,10.25,2.57,15.38,3.83a3.1,3.1,0,0,0,3.23-.89c2.8-4.18,6.7-3,10.31-2.1a17.83,17.83,0,0,0,9.72.08c2.64-.73,6-1.24,8.33-.17,6.31,3,8.69-.62,10.88-5.31,1.68,10.29,3.39,20.56,5,30.85.38,2.4,1.44,4.76.6,7.26-13,2.6-25.95,5.22-38.95,7.75a8.72,8.72,0,0,1-2.88-.43c-1.44-2.39-2.94-4.75-4.32-7.18q-9-15.9-17.89-31.84Z"/><path class="cls-17" d="M-44.28,151.16l-19.46-32.8c-.3-1.77-.76-3.45-2.61-4.28h0a62.22,62.22,0,0,0-2.73-6.75c-1.46-2.67-3.73-5-3.13-8.38,9.43-.19,18.64,2,28,2.67,9.05.69,18.06,2,27.09,3a23.7,23.7,0,0,1,6.78,1.48Q-1.4,122,7.55,137.91c1.38,2.43,2.88,4.79,4.32,7.18L8.7,146.82c-2.14-.74-4.29-.22-6.42,0Q-21,148.95-44.28,151.16Z"/><path class="cls-15" d="M10.66,49.06.31,75.69c1.8-7,3.48-14.07,5.46-21,1-3.51,0-4.53-3.56-5.19-9.27-1.75-18.44-4.07-27.64-6.16,3.64-1.4,7.19.19,10.58.86C-6.35,45.83,2.56,45.4,10.66,49.06Z"/><path class="cls-14" d="M-44.28,151.16Q-21,149,2.28,146.8c2.13-.2,4.28-.72,6.42,0,2.78,2.9,2.07,6.66,1.41,9.74C7.42,169,6.28,181.66,3.73,194.09c-.79,3.88-2,7.54-1.38,11.68C2.8,209-1.37,212.18-4.94,212c-13.54-.62-27.08-1.55-40.63-1.79a78.86,78.86,0,0,0-24.75,3.4c-6.49,0-11.46-4.27-16.76-7-7.91-4-16.09-7.6-23.7-12.24l.75-1.8a7.92,7.92,0,0,0,4.58-1.74c5.92-5.64,13.46-8.76,20.23-13.09C-71.51,169-57.92,160.05-44.28,151.16Z"/><path class="cls-16" d="M143.14,67.58a216.16,216.16,0,0,1,20.42,13.8c4.8,11.67,13.11,21.24,19.45,32,7.21,12.21,13.72,24.43,16.22,38.48.75,4.22.89,8.57,1.72,12.77,1.31,6.62.4,7.95-6.25,8.23-9.33.41-18.68.63-28,1.48-3.49.33-5.27-.55-6.63-3.56-3.32-7.37-6.4-14.84-10.45-21.91-2.42-4.22-5.05-7.8-9.61-9.37s-6.72-4.57-7.53-9c-1.41-7.63-2.47-15.41-5.25-22.66-2.92-7.61-1.59-14.42,1.87-21.38,2.15-4.31,3.59-9,5.42-13.44,1.38-3.37,1.76-8.61,7.62-4.46A8.58,8.58,0,0,0,143.14,67.58Z"/><path class="cls-13" d="M143.14,67.58a8.58,8.58,0,0,1-1,1c-5.86-4.15-6.24,1.09-7.62,4.46-1.83,4.48-3.27,9.13-5.42,13.44-3.46,7-4.79,13.77-1.87,21.38,2.78,7.25,3.84,15,5.25,22.66.81,4.4,3.06,7.43,7.53,9s7.19,5.15,9.61,9.37c4,7.07,7.13,14.54,10.45,21.91,1.36,3,3.14,3.89,6.63,3.56,9.29-.85,18.64-1.07,28-1.48,6.65-.28,7.56-1.61,6.25-8.23-.83-4.2-1-8.55-1.72-12.77-2.5-14-9-26.27-16.22-38.48-6.34-10.75-14.65-20.32-19.45-32a34.13,34.13,0,0,1,14.6,14.28c8.1,15,15.19,30.75,26.57,43.84a5.92,5.92,0,0,1,1.1,2.72c3.87,20.05,8,40.06,9.5,60.48-2.44.37-4.87.81-7.32,1.1q-21.12,2.49-42.27,4.93c-2.64-4.58-5-9.36-8-13.69-7.4-10.73-10.2-25-23.76-31-7.11-3.18-9-9.45-9.83-16.41-.08-.72-.78-1.37-1.19-2.05v0l-.58-1.35,0,.06-.6-1.37,0,.09c.27-.81.6-1.62-.22-2.33l0,.1c.29-.8.54-1.61-.21-2.32v.08a1.87,1.87,0,0,0-.5-2.44c-1.78-2.55-2.06-5.48-2.18-8.46-.2-5.1-1.9-9.83-3.66-14.55l17.09-42.4q1.65-4.08,3.29-8.16C138.43,63.67,140.65,65.83,143.14,67.58Z"/><path class="cls-13" d="M-10.31,110.25c15.2,4.84,30.46,9.52,45.56,14.64,4.21,1.43,5.21.29,4.37-3.46-3.34-14.94,3.84-27.53,8.94-40.57a7.55,7.55,0,0,1,2.13-2.69q9.83-8.44,19.72-16.8c-.51,5.05-2.6,9.69-3.68,14.59-1.24,5.57-3.92,10.75-4.45,16.51-1.13,2.12-.92,4.47-1.18,6.74-1.05,9.41-.62,19-3,28.24a7.18,7.18,0,0,1-.35.87c-5.64,2.2-13.75,1.4-16.71,6s-1.33,11.82-1.94,17.88c-.43,4.37.64,8.94-1.64,13.07l-7.09-.6c-.79-1.86-2.53-1.92-4.16-2.15C20,161.62,13.77,161,7.61,159.82a14.25,14.25,0,0,1-8.3-4.21c-2.77-3.06-6-5.74-8.7-8.82-5.92-6.67-13.7-11.95-15.63-21.66-.55-2.75-.59-4.11,2.1-5.52C-18.27,117.16-13.69,114.47-10.31,110.25Z"/><path class="cls-8" d="M62.28,92.47c.53-5.76,3.21-10.94,4.45-16.51,1.08-4.9,3.17-9.54,3.68-14.59,3.45-4.61,7.88-5.57,13.51-4.74C94.06,58.14,104.31,59,114.52,60a11.68,11.68,0,0,1,4.79,1.16c1.64.92,4.27,1.36,2.7,4.16-4.94,8.84-6.82,19.11-12.65,27.47-2.15,3.09-2.26,7.81-6.48,9.24-10.07,3.39-20.8,3.72-31,6.56-2.89.8-4.35-.09-5.32-3.24C65.23,101.07,65.4,96.2,62.28,92.47Z"/><path class="cls-10" d="M62.28,92.47c3.12,3.73,3,8.6,4.28,12.92,1,3.15,2.43,4,5.32,3.24,10.2-2.84,20.93-3.17,31-6.56,4.22-1.43,4.33-6.15,6.48-9.24,5.83-8.36,7.71-18.63,12.65-27.47,1.57-2.8-1.06-3.24-2.7-4.16,5.48-.44,10.83.6,16.22,1.35l-3.3,8.16a2.89,2.89,0,0,0-1.9,2.13c-3.35,9.72-8.79,18.6-12.06,28.27-2.56,7.58-6.93,11.28-14.54,12.69-3.29.61-7.5.44-9.57,4.29v0a1.73,1.73,0,0,0-2.25.19h0a1.7,1.7,0,0,0-2.61,1.13h0c-2-1-3.79-1.15-4.85,1.33l0,0c-.94-.38-1.8-.42-2.41.58-4.14,2.53-9,2.66-13.51,4.13-3.34,1.11-6.68,3-10.49,2,2.36-9.27,1.93-18.83,3-28.24C61.36,96.94,61.15,94.59,62.28,92.47Z"/><path class="cls-11" d="M38.27,183c.6,3.86-1.28,7.46-1.23,11.27L-8.52,192.4c-1.47-1.72,2.07-4.23-.9-5.72.21-.63.42-1.25.62-1.88a2.24,2.24,0,0,0,1.86-2.07c.87-6.85,4.46-12.74,6.68-19.11l30.65,1,7.09.6C39.65,171.07,37.51,177.09,38.27,183Zm-4.08-16.39a1.32,1.32,0,0,0-.44,0s0,.24,0,.36a1.33,1.33,0,0,0,.44,0S34.18,166.72,34.19,166.59Z"/><path class="cls-17" d="M30.39,164.64l-30.65-1c-1.82-1.16-3.71-2.22-5.46-3.48-8.6-6.23-18.81-9.9-26.94-16.88-.6-1.47-1.79-2.79-3.24-2a4.31,4.31,0,0,0-1.88,5L-51.27,166c-3.53-7.53-4.63-15.77-6.81-23.69-.5-1.78.65-3.1,1.75-4.41,4.67-5.59,8.9-11.6,14-16.73,6.25-6.27,14.51-9.81,22.3-13.73,3-1.5,6.52,1.52,9.7,2.8-3.38,4.23-8,6.92-12.61,9.37-2.69,1.41-2.65,2.77-2.1,5.52,1.93,9.71,9.71,15,15.63,21.66,2.74,3.08,5.93,5.76,8.7,8.82a14.25,14.25,0,0,0,8.3,4.21c6.16,1.13,12.41,1.8,18.62,2.67C27.86,162.72,29.6,162.78,30.39,164.64Zm-67.66-29.88.14-1.39-.46.09.3,1.31c-.4,1.55-.55,3,1.15,4.58C-35.47,137.19-35.49,135.75-37.27,134.76Zm-4.08,7.12c3.64-3.95.81-8.23-.29-12.41-.75-2.87-2.09-2.42-4.18-.49-6.11,5.64-10,11.74-6.89,20.44.46,1.28-.43,3,0,4.37.32,1.11,1.38,3.44,3,1.14C-46.78,150.81-42.65,147.45-41.35,141.88Z"/><path class="cls-14" d="M122.23,245.28c-12.63-11-23.76-23.53-35.42-35.52.75-.87,1.5-1.73,2.24-2.6,7-8.18,16.92-14.83,14.4-27.91,2.79-3.21,1.16-7.68,3.14-11.12h0c.79.2,1.22-.23,1.53-.87v-.36l1.51-.84c4.56-.45,8.23-3.24,12.42-4.68,4.44-1.16,8.16,1,12,2.64,13.56,6,16.36,20.29,23.76,31,3,4.33,5.34,9.11,8,13.69-4.34,7.36-8.71,14.7-13,22.08-1.35,2.31-2.77,4.44-5.37,5.58-6.78,3-13.51,6.11-20.29,9.11A5.56,5.56,0,0,1,122.23,245.28Z"/><path class="cls-18" d="M122,161.38c-4.19,1.44-7.86,4.23-12.42,4.68l-1.51.84v.37l-1.53.86h0a2.52,2.52,0,0,0-2.45.19c-8.38-5.91-15.36-13.45-23.14-20s-14.58-14.36-23.23-20a7.18,7.18,0,0,0,.35-.87c3.81,1,7.15-.94,10.49-2,4.47-1.47,9.37-1.6,13.51-4.13l2.41-.58,0,0a5.54,5.54,0,0,0,4.85-1.33h0c1.18.32,2.19.27,2.61-1.13h0a1.53,1.53,0,0,0,2.25-.19v0c7.26-.53,13.86-3.87,21-5,1.76,4.72,3.46,9.45,3.66,14.55.12,3,.4,5.91,2.19,8.46.16.82.33,1.63.49,2.44v-.08l.21,2.32,0-.1c.08.78.15,1.56.22,2.33l0-.09.6,1.37,0-.06.58,1.35v0c-1.13,2-.21,3.92.2,5.78C124,154.88,123.87,158.2,122,161.38Z"/><path class="cls-15" d="M115.14,113.11c-7.12,1.11-13.72,4.45-21,5,2.07-3.85,6.28-3.68,9.57-4.29,7.61-1.41,12-5.11,14.54-12.69,3.27-9.67,8.71-18.55,12.06-28.27a2.89,2.89,0,0,1,1.9-2.13Q123.68,91.92,115.14,113.11Z"/><path class="cls-15" d="M122,161.38c1.85-3.18,2-6.5,1.16-10-.41-1.86-1.33-3.82-.2-5.78.41.68,1.11,1.33,1.19,2.05.82,7,2.72,13.23,9.83,16.41C130.18,162.36,126.46,160.22,122,161.38Z"/><path class="cls-15" d="M121.87,143c-.07-.77-.14-1.55-.22-2.33C122.47,141.41,122.14,142.22,121.87,143Z"/><path class="cls-15" d="M121.68,140.8l-.21-2.32C122.22,139.19,122,140,121.68,140.8Z"/><path class="cls-15" d="M121.48,138.56c-.16-.81-.33-1.62-.49-2.44A1.88,1.88,0,0,1,121.48,138.56Z"/><path class="cls-15" d="M123,145.6l-.58-1.35Z"/><path class="cls-15" d="M122.44,144.31l-.6-1.37Z"/><path class="cls-9" d="M57.77,128.32c8.65,5.59,15.45,13.34,23.23,20s14.76,14.14,23.14,20l-.69,10.93C106,192.33,96,199,89.05,207.16c-.74.87-1.49,1.73-2.24,2.6-9.64-4.73-18.7-10.5-28-15.81-6.73-3.83-13.18-8.26-20.52-11-.76-5.89,1.38-11.91-.79-17.74,2.28-4.13,1.21-8.7,1.64-13.07.61-6.06-1-13.39,1.94-17.88S52.13,130.52,57.77,128.32Z"/><path class="cls-15" d="M89.35,119.39a5.54,5.54,0,0,1-4.85,1.33C85.56,118.24,87.34,118.39,89.35,119.39Z"/><path class="cls-15" d="M91.94,118.27c-.42,1.4-1.43,1.45-2.61,1.13A1.7,1.7,0,0,1,91.94,118.27Z"/><path class="cls-15" d="M84.53,120.69l-2.41.58C82.73,120.27,83.59,120.31,84.53,120.69Z"/><path class="cls-15" d="M94.17,118.07a1.53,1.53,0,0,1-2.25.19A1.73,1.73,0,0,1,94.17,118.07Z"/><path class="cls-9" d="M34.19,166.59c0,.13,0,.35,0,.37a1.33,1.33,0,0,1-.44,0c0-.12,0-.35,0-.36A1.32,1.32,0,0,1,34.19,166.59Z"/><path class="cls-16" d="M103.45,179.25l.69-10.93a2.52,2.52,0,0,1,2.45-.19C104.61,171.57,106.24,176,103.45,179.25Z"/><path class="cls-16" d="M106.55,168.13l1.53-.86C107.77,167.9,107.34,168.33,106.55,168.13Z"/><path class="cls-16" d="M108.09,166.9l1.51-.84Z"/></g></g></g></g></g></g></svg>