<svg xmlns="http://www.w3.org/2000/svg" viewBox="0 0 989.15 163.13"><defs><style>.cls-1,.cls-14,.cls-15{fill:none;}.cls-2{fill:#c1b6a5;}.cls-3{fill:#5a534a;}.cls-4{fill:#b8ae9c;}.cls-5{fill:#504a40;}.cls-6{fill:#898277;}.cls-7{fill:#635c52;}.cls-8{fill:#c6bdb1;}.cls-9{fill:#a19690;}.cls-10{fill:#988e84;}.cls-11{fill:#ab9f91;}.cls-12{fill:#817b71;}.cls-13{fill:#706966;}.cls-14{stroke:#c6bdb1;}.cls-14,.cls-15{stroke-linecap:round;stroke-linejoin:round;stroke-width:0;}.cls-15{stroke:#a19690;}.cls-16{fill:#484139;}</style></defs><title>Rocks_Bottom</title><g id="Layer_2" data-name="Layer 2"><g id="Layer_2-2" data-name="Layer 2"><g id="Layer_3" data-name="Layer 3"><path class="cls-1" d="M532.05,134.15h0l-20.2-16.39c-.06-.59-.11-1.18-.16-1.77.05.59.1,1.18.16,1.77Z"/><path class="cls-1" d="M579.86,130a2.58,2.58,0,0,0-.09.82h0A2.58,2.58,0,0,1,579.86,130Z"/><path class="cls-1" d="M625.51,154.2c2.53-.64,5.21-.34,7.86-.26,6.66.27,11.81,3.09,16.49,6.68-4.68-3.59-9.83-6.41-16.49-6.68C630.72,153.86,628,153.56,625.51,154.2Z"/><path class="cls-1" d="M584.05,126a6,6,0,0,0-.58,2h0A6,6,0,0,1,584.05,126Z"/><path class="cls-1" d="M618.92,159a26.68,26.68,0,0,1-4.39,4.11h0A26.68,26.68,0,0,0,618.92,159Z"/><path class="cls-1" d="M510.65,88c.37,6.39-.06,12.8.17,19.2-.23-6.4.21-12.81-.17-19.2-.63-5-1.33-10-1.92-15C509.32,78.05,510,83,510.65,88Z"/><path class="cls-1" d="M614.83,137.59a1.46,1.46,0,0,0-.89-1.31h0A1.46,1.46,0,0,1,614.83,137.59Z"/><path class="cls-1" d="M616.72,140.94h0l-.49-.49Z"/><path class="cls-1" d="M617.6,141.83h0l-.93-.94h0Z"/><path class="cls-1" d="M585.57,124.06a9,9,0,0,0-.85.9A9,9,0,0,1,585.57,124.06Z"/><path class="cls-1" d="M615.42,138.51a1.33,1.33,0,0,0-.56-.39h0A1.33,1.33,0,0,1,615.42,138.51Z"/><path class="cls-1" d="M614.86,138.12a4.84,4.84,0,0,0,0-.53,4.84,4.84,0,0,1,0,.53Z"/><path class="cls-1" d="M763.8,82.22c2.52,4.35,5.14,8.64,7.7,13,3.67,7.3,6.15,15.16,10.21,22.27-4.06-7.11-6.54-15-10.21-22.26C768.94,90.86,766.32,86.57,763.8,82.22Z"/><path class="cls-1" d="M582.14,128.25a1.52,1.52,0,0,0-.54.68h0A1.52,1.52,0,0,1,582.14,128.25Z"/><path class="cls-1" d="M895.28,128.24c-.08-.21-.15-.42-.21-.64h0C895.13,127.82,895.2,128,895.28,128.24Z"/><path class="cls-1" d="M894.53,127.88a2.27,2.27,0,0,0-.94,1.44h0A2.27,2.27,0,0,1,894.53,127.88Z"/><path class="cls-1" d="M891,102.12h0l-1.23-.48h0Z"/><path class="cls-1" d="M889.79,101.64l1.23.48h0Z"/><path class="cls-1" d="M895.24,125.8c.14-.51.29-1,.44-1.53a20.86,20.86,0,0,0,3.28-6.63,20.86,20.86,0,0,1-3.28,6.63C895.53,124.78,895.38,125.29,895.24,125.8Z"/><path class="cls-1" d="M895.28,128.24a8.34,8.34,0,0,0,1,1.76A8.34,8.34,0,0,1,895.28,128.24Z"/><path class="cls-1" d="M896.64,130.54c.28.36.56.7.85,1.05C897.2,131.24,896.92,130.9,896.64,130.54Z"/><path class="cls-1" d="M961.68,120.89q2.25,8.76,4.53,17.53Q963.92,129.66,961.68,120.89Z"/><path class="cls-1" d="M895.47,126.05l-.23-.25s.23.25.23.26Z"/><path class="cls-1" d="M886.46,98.89a2.86,2.86,0,0,1,.47.7A2.86,2.86,0,0,0,886.46,98.89Z"/><path class="cls-1" d="M910.3,107c7.19-2.78,13.88-1.61,20.46.32-6.58-1.93-13.27-3.1-20.46-.32-2.47,1-5,1.77-7.12,3.36C905.26,108.75,907.83,108,910.3,107Z"/><path class="cls-1" d="M903.18,110.34a10.55,10.55,0,0,0-1.07,1A10.55,10.55,0,0,1,903.18,110.34Z"/><path class="cls-1" d="M900.11,114.49c-.33.83-.63,1.67-.92,2.51C899.48,116.16,899.78,115.32,900.11,114.49Z"/><path class="cls-1" d="M854,100.31a7.19,7.19,0,0,1,.83-2.34A7.19,7.19,0,0,0,854,100.31Z"/><path class="cls-1" d="M33.18,136.76c-.25-.56-.47-1.13-.69-1.68C32.71,135.63,32.93,136.2,33.18,136.76Z"/><path class="cls-1" d="M34.36,138.77a5.12,5.12,0,0,0,1.77,1.46h0A5.12,5.12,0,0,1,34.36,138.77Z"/><path class="cls-1" d="M158.25,43.49c-1.84,6.44-3.38,13-5.05,19.46-2.38,7.2-5.83,14-8,21.28,2.2-7.26,5.65-14.08,8-21.28C154.87,56.46,156.41,49.93,158.25,43.49Z"/><path class="cls-1" d="M74.44,79.22c.19.24.36.51.56.73l1.72.69L75,80C74.8,79.73,74.63,79.46,74.44,79.22Z"/><path class="cls-1" d="M146,95.73,143.35,91l.51-1.71L143.35,91,146,95.73Z"/><path class="cls-1" d="M207.36,107.59h0Z"/><path class="cls-1" d="M44.38,163.13h0a.61.61,0,0,1-.05-.12A.61.61,0,0,0,44.38,163.13Z"/><path class="cls-1" d="M208,103.3l.12-1Z"/><path class="cls-1" d="M650.64,161.23c.76.61,1.51,1.23,2.26,1.86C652.15,162.46,651.4,161.84,650.64,161.23Z"/><path class="cls-1" d="M36,141.84a1.06,1.06,0,0,1-.16-.43A1.06,1.06,0,0,0,36,141.84Z"/><path class="cls-1" d="M37.89,145.9h0a1.76,1.76,0,0,1-.52-1A1.76,1.76,0,0,0,37.89,145.9Z"/><path class="cls-1" d="M41.36,152.75a33.39,33.39,0,0,0-1.43-3.25A33.39,33.39,0,0,1,41.36,152.75Z"/><path class="cls-1" d="M43,157.85c-.27-1-.56-1.91-.86-2.86C42.45,155.94,42.74,156.89,43,157.85Z"/><path class="cls-1" d="M372.89,143.79l-1.08-.48h0Z"/><path class="cls-1" d="M382.34,145h0l-9.45-1.24h0Z"/><path class="cls-1" d="M360.53,141.8a2,2,0,0,0-2.32,1.34l-10.39,5.54h0l10.39-5.54A2,2,0,0,1,360.53,141.8Z"/><path class="cls-1" d="M600.06,74.33v0l-.24,42.27Z"/><path class="cls-1" d="M615.6,138.82a.5.5,0,0,1,0,.13A.5.5,0,0,0,615.6,138.82Z"/><path class="cls-1" d="M93.48,102.21l.49.2h0Z"/><path class="cls-1" d="M238.92,101.84a1.42,1.42,0,0,0-1,.47h0A1.42,1.42,0,0,1,238.92,101.84Z"/><path class="cls-1" d="M208.35,99.72c.09-1.19.17-2.37.25-3.56C208.52,97.35,208.44,98.53,208.35,99.72Z"/><path class="cls-1" d="M232.68,102.84a2.21,2.21,0,0,1,.57-.11A2.21,2.21,0,0,0,232.68,102.84Z"/><path class="cls-1" d="M231.9,103.3a2.11,2.11,0,0,1,.51-.35A2.11,2.11,0,0,0,231.9,103.3Z"/><path class="cls-1" d="M235.7,103a2.85,2.85,0,0,0-.17.39h0A2.85,2.85,0,0,1,235.7,103Z"/><path class="cls-1" d="M231.67,103.55a4,4,0,0,0-.6,1h0A4,4,0,0,1,231.67,103.55Z"/><path class="cls-1" d="M188.15,159.09v0Z"/><path class="cls-1" d="M36.53,142.33a3.18,3.18,0,0,0,.64.31h0A3.18,3.18,0,0,1,36.53,142.33Z"/><path class="cls-1" d="M854,100.31a5.85,5.85,0,0,0,.19,2.69h0A5.85,5.85,0,0,1,854,100.31Z"/><path class="cls-1" d="M851.66,105.85a2.17,2.17,0,0,0,.25,1.15h0A2.17,2.17,0,0,1,851.66,105.85Z"/><path class="cls-1" d="M853.07,103.74a1.44,1.44,0,0,0-.21.84h0A1.44,1.44,0,0,1,853.07,103.74Z"/><path class="cls-1" d="M809.46,129.05l-25.06-7c-.29-.52-.57-1.05-.85-1.57.28.52.56,1,.85,1.57l25.06,7Z"/><path class="cls-1" d="M729.93,161.77l-1.71.73c-.44,0-.92-.16-1.36-.15.44,0,.92.12,1.36.15Z"/><path class="cls-1" d="M887.61,99.9a1.29,1.29,0,0,0-.58-.09h0A1.29,1.29,0,0,1,887.61,99.9Z"/><path class="cls-1" d="M889.85,101.66h0l-.65-.26Z"/><path class="cls-1" d="M886.46,98.89a1.33,1.33,0,0,0-1-.41h0A1.33,1.33,0,0,1,886.46,98.89Z"/><path class="cls-2" d="M265.69,122.05a1.31,1.31,0,0,0-.42-1h0A1.31,1.31,0,0,1,265.69,122.05Z"/><path class="cls-2" d="M266.13,126.4h0l-.25-.57Z"/><path class="cls-2" d="M266.63,127.56h0c.19.31.45.62.67.93C267.08,128.18,266.82,127.87,266.63,127.56Z"/><path class="cls-2" d="M360.91,100.51c5-5.51,4.21-10.85,1-16.73-2.33-4.31-5.6-8-7.54-12.64-1.28-3-7.75-4.36-10.64-2.86-5.68,2.93-12.17,4.31-17.53,7.4a53.15,53.15,0,0,1-9.51,4.11c.32.53.65,1.06,1,1.63,6.8,12.62,12.84,25.74,21.75,37.1,3.86-2.82,7.65-5.74,11.33-8.81A97.19,97.19,0,0,0,360.91,100.51Z"/><path class="cls-2" d="M266.63,127.56h0c-.17-.41-.35-.81-.52-1.21h0C266.28,126.75,266.46,127.15,266.63,127.56Z"/><path class="cls-2" d="M265.89,124.11a1.24,1.24,0,0,0-.44-1h0A1.24,1.24,0,0,1,265.89,124.11Z"/><path class="cls-3" d="M470.13,146.52Z"/><path class="cls-3" d="M443.42,132.15c.27.16.53.34.79.48h0C444,132.49,443.69,132.31,443.42,132.15Z"/><path class="cls-4" d="M272.82,142.89c1.35.52,2.67,1.16,4,1.74a24.51,24.51,0,0,1,7.35,5h0a24.51,24.51,0,0,0-7.35-5c-1.34-.58-2.66-1.22-4-1.74Z"/><path class="cls-4" d="M326.22,75.68c5.36-3.09,11.85-4.47,17.53-7.4,2.89-1.5,9.36-.19,10.64,2.86,1.94,4.63,5.21,8.33,7.54,12.64,3.19,5.88,4,11.22-1,16.73a97.19,97.19,0,0,1-10.17,9.2c-3.68,3.07-7.47,6-11.33,8.81.91,1.16,1.84,2.31,2.82,3.43a5.58,5.58,0,0,1,1,2.52c1.56,8.07,3.14,16.12,4.57,24.21l10.39-5.54a2,2,0,0,1,2.32-1.34c.56,0,1.13.13,1.64.11,5.49-.27,9.27-2.95,11.86-7.71.53-1,.38-3.27,2.72-2.35,4.61-4.84,3.62-11.24,4.32-17,1.08-9,1.36-18,2.9-26.92.72-4.11-.42-6.7-4.63-8.64-5.32-2.46-11.26-3.92-15.67-8.18a17.7,17.7,0,0,1-3.84-1.39c-6.95-4.56-13.2-5.36-21.54-1.4-7.44,3.53-15,6.74-22.67,9.84.38.53.74,1.08,1.09,1.64A53.15,53.15,0,0,0,326.22,75.68Z"/><path class="cls-5" d="M359.06,143.64l-.85-.5-10.39,5.54c.84,4.8,1.62,9.62,2.3,14.45H367.4q-3.48-6.87-6.87-13.78A11.28,11.28,0,0,1,359.06,143.64Z"/><path class="cls-6" d="M250.62,151c-.08.45-.14.89-.18,1.34C250.48,151.85,250.54,151.41,250.62,151Z"/><path class="cls-6" d="M252,148.46h0Z"/><path class="cls-6" d="M252.86,147.63v-.34s0,.33,0,.34Z"/><path class="cls-6" d="M291.07,159.32c-.86-1.57-1.76-3.1-2.74-4.58h0C289.31,156.22,290.21,157.75,291.07,159.32Z"/><path class="cls-6" d="M249.22,148.61h0a2.4,2.4,0,0,1,1.11-.39A2.4,2.4,0,0,0,249.22,148.61Z"/><path class="cls-6" d="M251,149.43a6.82,6.82,0,0,1,.45-1h0A6.82,6.82,0,0,0,251,149.43Z"/><path class="cls-6" d="M252.87,147.29l1.39-.77c3.16-.32,5.86-1.85,8.65-3.15-2.79,1.3-5.49,2.83-8.65,3.15Z"/><path class="cls-6" d="M384,87.92c-1.54,8.91-1.82,18-2.9,26.92-.7,5.77.29,12.17-4.32,17a21.43,21.43,0,0,1-1.17,2.9c-1.36,2.81-3.12,5.44-3.77,8.56l1.08.48,9.45,1.24h0q0,9-.12,18.1H393c-1.42-9.22-5.15-17.85-7.44-26.84-.3-1.19-.43-2.42-.64-3.62h1c.7-2.44-1.43-4.86-.05-7.3h0c-1-.16-2.21.16-2.79-1.1l5-7.22s0-.08,0-.11c-.73-8.52-2.35-17-3.07-25.48-.59-7,2.14-9.25,8.76-7.42,5,1.38,10,2.21,15.08,3.16l2.11-3a9.82,9.82,0,0,1,1.68-1.52q1.59-1.64,3.21-3.25a10.25,10.25,0,0,0-3.51-1.18c-16.24-2.31-32.46-4.73-48.69-7.12,4.41,4.26,10.35,5.72,15.67,8.18C383.55,81.22,384.69,83.81,384,87.92Z"/><path class="cls-7" d="M372.89,143.79c-1.92,3-1.14,5.91-.33,8.81.08.27.15.53.23.79.14.53.28,1.05.39,1.58a12.39,12.39,0,0,1,.26,1.58,63.94,63.94,0,0,0,1.07,6.58h7.71q.07-9,.12-18.1Z"/><path class="cls-8" d="M288.33,154.74h0a32.62,32.62,0,0,0-4.15-5.09h0A32.62,32.62,0,0,1,288.33,154.74Z"/><path class="cls-8" d="M358.21,143.14l.85.5,12.75-.33h0c.65-3.12,2.41-5.75,3.77-8.56a21.43,21.43,0,0,0,1.17-2.9c-2.34-.92-2.19,1.37-2.72,2.35-2.59,4.76-6.37,7.44-11.86,7.71-.51,0-1.08-.08-1.64-.11A2,2,0,0,0,358.21,143.14Z"/><path class="cls-3" d="M373.18,155c-.11-.53-.25-1.05-.39-1.58-.08-.26-.15-.52-.23-.79-.81-2.9-1.59-5.81.33-8.81h0l-1.08-.48-12.75.33a11.28,11.28,0,0,0,1.47,5.71q3.41,6.9,6.87,13.78h7.11a63.94,63.94,0,0,1-1.07-6.58A12.39,12.39,0,0,0,373.18,155Z"/><path class="cls-9" d="M401.24,87.67c-3.32-1-4.55.24-4.33,3.6.12,1.73.18,3.45,1.26,4.82.8,1,1.58,2.07,2.35,3.12l6.8-9.78Q404.28,88.6,401.24,87.67Z"/><path class="cls-10" d="M428.4,130.53c4.73.5,9.47.95,14.22,1.32a1.91,1.91,0,0,1,.8.3c.27.16.53.34.79.48h3.7l8.32.06c8-3.37,16.7-4.66,25-7.23,8-2.49,16.22-4.4,24.31-6.68a22,22,0,0,1,6.33-1c-.06-.59-.11-1.18-.16-1.77-.21-1.16-.37-2.32-.5-3.49-.19-1.76-.31-3.52-.37-5.28-.23-6.4.2-12.81-.17-19.2-.63-5-1.33-10-1.92-15-.2-1.66-.38-3.32-.55-5-.33-3.36-1.56-3.88-4.83-3.25-8.56,1.65-17.23,2.78-25.86,4.12h0c-6.47,2.49-13.29,3.26-20.05,4.34-2.25.36-4.5.75-6.72,1.26-11.77,2.65-23.53,5.36-35.3,8a14.08,14.08,0,0,1-2.76.1A9.82,9.82,0,0,0,411,84.17l-2.11,3c-5.05-1-10.12-1.78-15.08-3.16-6.62-1.83-9.35.46-8.76,7.42.72,8.52,2.34,17,3.07,25.48,0,0,0,.07,0,.11l-5,7.22c.58,1.26,1.78.94,2.79,1.1h0C400.06,127,414.2,129,428.4,130.53ZM398.17,96.09c-1.08-1.37-1.14-3.09-1.26-4.82-.22-3.36,1-4.62,4.33-3.6q3,.93,6.08,1.76l-6.8,9.78C399.75,98.16,399,97.11,398.17,96.09Z"/><path class="cls-3" d="M576.72,131.55a3,3,0,0,0-.65,2h0A3,3,0,0,1,576.72,131.55Z"/><path class="cls-11" d="M415.42,82.55c11.77-2.65,23.53-5.36,35.3-8,2.22-.51,4.47-.9,6.72-1.26,6.76-1.08,13.58-1.85,20.05-4.34h0c2-1.83,4.51-2.2,7-2.52.82-.1,1.64-.2,2.42-.35,7.87-1.45,15.39-4.85,23.6-4.47,4.14-5.43,10.22-8.63,15.13-13.16,4.26-3.93,9.69-6.5,13-11.44-3.84-1.07-7.63.24-11.45.28-19.06.22-38.09,1.37-57.14,1.78-8.62.18-15.23,2.14-21.41,8.56-10.55,11-22.05,21-32.79,31.78q-1.62,1.62-3.21,3.25A14.08,14.08,0,0,0,415.42,82.55Z"/><path class="cls-12" d="M525.61,48.44c-4.91,4.53-11,7.73-15.13,13.16q.09,13.21.17,26.42c.38,6.39-.06,12.8.17,19.2.06,1.76.18,3.52.37,5.28.13,1.17.29,2.33.5,3.49,4.84-.65,9.69-1.28,14.53-1.95a2.86,2.86,0,0,0,2.47-1.87,5.72,5.72,0,0,1,4.34-4.65c3.54-6.74,7.13-13.45,10.71-20.17,1.39-5.13,4.87-7.47,10-8.67l1.74-.42q-7.05-19.92-14.08-39.85c-.54-1.54-1.32-1.9-2.73-1.41C535.3,41.94,529.87,44.51,525.61,48.44Z"/><path class="cls-13" d="M532.05,134.15c-1-7.39-.43-15.05-.46-22.6a6.88,6.88,0,0,1,.92-3l.52-1a5.72,5.72,0,0,0-4.34,4.65,2.86,2.86,0,0,1-2.47,1.87c-4.84.67-9.69,1.3-14.53,1.95.05.59.1,1.18.16,1.77Z"/><path class="cls-4" d="M489.13,161.21c-.36.65-.73,1.3-1.13,1.92h0c.4-.62.77-1.27,1.13-1.92Z"/><path class="cls-4" d="M483.33,156.72l-13.2-10.2h-.73a3.77,3.77,0,0,1-1.84-.45,2.62,2.62,0,0,1-1.14-2.34h0a4.8,4.8,0,0,1-4.09-1.35c-.27-.23-.53-.48-.79-.74s-.76-.77-1.15-1.14a8.75,8.75,0,0,0-1.22-1c-3.67-2.44-8.1-3.62-11.26-6.85h-1.84c-.63,1-1.24,1-1.86,0-.26-.14-.52-.32-.79-.48a1.91,1.91,0,0,0-.8-.3c-4.75-.37-9.49-.82-14.22-1.32-14.2-1.51-28.34-3.5-42.52-5.16h0c-1.38,2.44.75,4.86.05,7.3,3.44,10.31,7.16,20.53,11.54,30.46h6.23c-4.09-6.68-6.65-14.27-8.44-22-.34-1.47-.36-3-.71-4.52-1-4.24,1.25-6.79,6.35-6.73l12.25,2.76a221.89,221.89,0,0,0,23.51,3.85c8.58,1,14.51,6.67,20.91,11.72,4.21,3.31,7.85,7.18,11.87,10.67a10.37,10.37,0,0,1,3.23,4.24h4.19c1.6-1.81,3.24-3.58,4.83-5.37A3.77,3.77,0,0,1,483.33,156.72Z"/><path class="cls-11" d="M489.13,161.21c.17-.3.34-.6.49-.92l.18-.39a22.69,22.69,0,0,0,1.19-3c11.23-.78,22.45-1.64,33.68-2.34l11.9-6.05.38-.2a35.8,35.8,0,0,1-4.9-14.13l-20.2-16.39a22,22,0,0,0-6.33,1c-8.09,2.28-16.29,4.19-24.31,6.68-8.28,2.57-16.93,3.86-25,7.23.65,3.15,3.39,4.35,5.55,6.15a56.34,56.34,0,0,1,4.64,4.87h0c1.87.08,2.84,1.37,3.71,2.79h0l13.2,10.2a3.77,3.77,0,0,0-1.64,1c-1.59,1.79-3.23,3.56-4.83,5.37H488c.4-.62.77-1.27,1.13-1.92Z"/><path class="cls-8" d="M508.18,68.07c.17,1.67.35,3.33.55,5,.59,5,1.29,10,1.92,15q-.07-13.22-.17-26.42c-8.21-.38-15.73,3-23.6,4.47-.78.15-1.6.25-2.42.35-2.46.32-5,.69-7,2.52h0c8.63-1.34,17.3-2.47,25.86-4.12C506.62,64.19,507.85,64.71,508.18,68.07Z"/><path class="cls-2" d="M459.17,139.5a8.75,8.75,0,0,1,1.22,1c.39.37.76.76,1.15,1.14s.52.51.79.74a4.8,4.8,0,0,0,4.09,1.35,56.34,56.34,0,0,0-4.64-4.87c-2.16-1.8-4.9-3-5.55-6.15l-8.32-.06C451.07,135.88,455.5,137.06,459.17,139.5Z"/><path class="cls-2" d="M446.07,132.64h-1.86C444.83,133.6,445.44,133.59,446.07,132.64Z"/><path class="cls-7" d="M524.67,154.53c3.49-.21,7-.42,10.48-.59,4.1-.21,4.57-1.52,2.57-4.47-.27-.39-.52-.79-.77-1.19l-.38.2Z"/><path class="cls-8" d="M385.93,132.67h-1c.21,1.2.34,2.43.64,3.62,2.29,9,6,17.62,7.44,26.84h4.43C393.09,153.2,389.37,143,385.93,132.67Z"/><path class="cls-2" d="M469.44,158.89c-4-3.49-7.66-7.36-11.87-10.67-6.4-5.05-12.33-10.75-20.91-11.72a221.89,221.89,0,0,1-23.51-3.85l-12.25-2.76c-5.1-.06-7.33,2.49-6.35,6.73.35,1.52.37,3,.71,4.52,1.79,7.72,4.35,15.31,8.44,22h69A10.37,10.37,0,0,0,469.44,158.89Z"/><path class="cls-2" d="M467.56,146.07a3.77,3.77,0,0,0,1.84.45h.73c-.87-1.42-1.84-2.71-3.71-2.79A2.62,2.62,0,0,0,467.56,146.07Z"/><path class="cls-9" d="M607.88,69.11c-6.45-1.57-5,3.06-5,6.43-.06,4.47.29,9-.09,13.4-.6,7.17.57,13.47,5.68,19,4.86,5.28,8.41,11.61,12.22,17.69,2.2,3.51,5.17,5.35,9.54,5.15s7.93,2,11.45,4.78c5.89,4.7,11.08,10.07,16.45,15.28,2.19,2.12,4,2.27,6.91.8,3.4-1.72,6.85-3.33,10.32-4.91q1.57-7.77,3.14-15.53a10,10,0,0,1,.94-2.06c1.33-3.53,2.73-7,4.17-10.51-6.78-9.92-15.8-17.54-25.34-25-9.12-7.08-19.51-12.48-27.62-20.87a199,199,0,0,0-22.26-4.91A8.9,8.9,0,0,1,607.88,69.11Z"/><path class="cls-10" d="M683.59,118.65c1.19-2.87,2.41-5.74,3.63-8.59a4.38,4.38,0,0,0-1.4-1.29c-14.23-7.38-25.68-18.47-37.77-28.64a31.58,31.58,0,0,0-17.42-7.3c8.11,8.39,18.5,13.79,27.62,20.87C667.79,101.11,676.81,108.73,683.59,118.65Z"/><polygon class="cls-10" points="614.86 138.13 614.86 138.13 614.86 138.13 614.86 138.13 614.86 138.13"/><path class="cls-10" d="M616.23,140.45l.49.49-.93-.93h0Z"/><path class="cls-10" d="M600.06,74.33l-.24,42.27c3.11,3.46,6.19,6.94,8.1,11.26l.42.94a12.79,12.79,0,0,0,4.34,5.59,1.63,1.63,0,0,1,1.24,1.6c0,.09,0,.19,0,.29a1.46,1.46,0,0,1,.89,1.31,4.84,4.84,0,0,1,0,.53,1.33,1.33,0,0,1,.56.39,1.2,1.2,0,0,1,.18.31.5.5,0,0,1,0,.13,2.66,2.66,0,0,1,.1.49c0,.19,0,.38,0,.57l.93.93h0l-.05-.05.93.94h0c.59.45,1.41.77,1.73,1.36,3.07,5.71,6.84,10.45,14,10.76,6.66.27,11.81,3.09,16.49,6.68l.78.61c.76.61,1.51,1.23,2.26,1.86l0,0h71.38l2.13-.71a1.14,1.14,0,0,1,.41-.07c.44,0,.92.12,1.36.15l1.71-.73,1.69-.72,7.66-3.24c6.05-6.29,13.48-10.91,20.06-16.56,6.37-5.47,13.14-10.47,19.66-15.77a22.31,22.31,0,0,1,5.4-3.47c-.29-.52-.57-1.05-.85-1.57-.65-1-1.26-2-1.84-3-4.06-7.11-6.54-15-10.21-22.27-2.56-4.32-5.18-8.61-7.7-13-.84-1.45-1.68-2.9-2.49-4.36-1.64-3-3-3-5.72-1.07-7.21,4.92-14.72,9.39-22.11,14h0c-4.53,4.44-9.91,7.69-15.23,11-2.41,1.51-4.82,3-7.12,4.73-9.75,7.11-19.46,14.27-29.22,21.37a14.64,14.64,0,0,1-2.49,1.19,10,10,0,0,0-.94,2.06q-1.58,7.75-3.14,15.53c-3.47,1.58-6.92,3.19-10.32,4.91-2.89,1.47-4.72,1.32-6.91-.8-5.37-5.21-10.56-10.58-16.45-15.28-3.52-2.8-7-5-11.45-4.78s-7.34-1.64-9.54-5.15c-3.81-6.08-7.36-12.41-12.22-17.69-5.11-5.55-6.28-11.85-5.68-19,.38-4.44,0-8.93.09-13.4,0-3.37-1.43-8,5-6.43a8.9,8.9,0,0,0,.49-1.19c-2.73-.66-5.38-1.75-8.25-1.73l-.06,8.1Z"/><path class="cls-10" d="M543.34,160c1-4.94,8.23-7,12.34-10.82,0-.29,0-.58,0-.88-.78-6-2.73-11.72-4.63-17.44-.86-2.6-1.71-5.2-2.42-7.84-.56-2-1.54-4-1.29-6.2-1.5-5.13-1-10.5-1.8-15.71-.74-4.58-.52-9.29-1.8-13.8-3.58,6.72-7.17,13.43-10.71,20.17l-.52,1a6.88,6.88,0,0,0-.92,3c0,7.55-.59,15.21.46,22.6h0a35.8,35.8,0,0,0,4.9,14.13c.25.4.5.8.77,1.19,2,2.95,1.53,4.26-2.57,4.47-3.5.17-7,.38-10.48.59-11.23.7-22.45,1.56-33.68,2.34a22.69,22.69,0,0,1-1.19,3l-.18.39c-.15.32-.32.62-.49.92-.36.65-.73,1.3-1.13,1.92h55.3A9.14,9.14,0,0,1,543.34,160Z"/><path class="cls-2" d="M543.74,87.35c1.28,4.51,1.06,9.22,1.8,13.8.83,5.21.3,10.58,1.8,15.71,3.95,2.14,5.46,6.39,8.08,9.65,1.91,2.37,3.47,2.65,5.67,1,7.8-5.91,16.92-9.85,24.42-16.2,3.14-2.66,1.63-6.76,2.43-10.15,2.16-9.17.27-18.64,1.52-27.92.39-2.94-2-2.43-3.75-2.66a11,11,0,0,0-4.51.63c-8.56,2.4-17.09,5-25.73,7.08l-1.74.42C548.61,79.88,545.13,82.22,543.74,87.35Z"/><path class="cls-4" d="M589.46,73.21c-1.25,9.28.64,18.75-1.52,27.92-.8,3.39.71,7.49-2.43,10.15-7.5,6.35-16.62,10.29-24.42,16.2-2.2,1.68-3.76,1.4-5.67-1-2.62-3.26-4.13-7.51-8.08-9.65-.25,2.21.73,4.16,1.29,6.2.71,2.64,1.56,5.24,2.42,7.84,1.9,5.72,3.85,11.42,4.63,17.44h0a10.43,10.43,0,0,0,5.54-2.84c.94-.82,1.84-1.7,2.77-2.48.42-.35.85-.69,1.29-1,3.08-2.26,6.56-4,8.93-7.15a1.47,1.47,0,0,1,1.53-1.31h.33a3,3,0,0,1,.65-2,2.32,2.32,0,0,1,1-.62,4.53,4.53,0,0,1,1.32-.18l.74,0a2.58,2.58,0,0,1,.09-.82c.21-.71.79-1.06,1.74-1a1.52,1.52,0,0,1,.54-.68,2,2,0,0,1,1.33-.25v0a6,6,0,0,1,.58-2,6.44,6.44,0,0,1,.67-1.07,9,9,0,0,1,.85-.9,32.76,32.76,0,0,1,4.67-3c6.06-3.81,8.56-8.47,8.18-15.87-.48-9.43,1.16-18.91.74-28.41a2.64,2.64,0,0,1,.9-2.47v0l.06-8.1h0c-4.89,1.19-9.84,2.12-14.41,4.36C587.44,70.78,589.85,70.27,589.46,73.21Z"/><path class="cls-7" d="M650.64,161.23l-.78-.61c-4.68-3.59-9.83-6.41-16.49-6.68-2.65-.08-5.33-.38-7.86.26a9.53,9.53,0,0,0-3.34,1.55,38.57,38.57,0,0,0-3.25,3.27,26.68,26.68,0,0,1-4.39,4.11h38.41l0,0C652.15,162.46,651.4,161.84,650.64,161.23Z"/><path class="cls-12" d="M618.92,159a38.57,38.57,0,0,1,3.25-3.27,12.27,12.27,0,0,0-2.42-9c-1-1.46-2.45-2.83-2.15-4.9l-.93-.94h0l.05.05h0l-.49-.49-.44-.44v0l0,0,0,0-1-1.9h0l-.93-1.85h0l-1.22-1.87a12.79,12.79,0,0,1-4.34-5.59l-.42-.94c-1.91-4.32-5-7.8-8.1-11.26-5.75,3.38-10.28,8.5-16.35,11.42h0v0a1.4,1.4,0,0,1-1.84.94c.11,1.35-.74,1.73-1.86,1.86h0a5.1,5.1,0,0,1-3.7,2.79v0l-1.86,1.31c-2.37,3.14-5.85,4.89-8.93,7.15-.44.32-.87.66-1.29,1-.93.78-1.83,1.66-2.77,2.48a10.43,10.43,0,0,1-5.54,2.84h0c0,.3,0,.59,0,.88,9.34,1.86,17.82,6.21,26.76,9.23,2.23.76,4.45,1.58,6.65,2.43l5.83,2.25h19.61A26.68,26.68,0,0,0,618.92,159Z"/><path class="cls-8" d="M599.82,116.6l.24-42.27a2.64,2.64,0,0,0-.9,2.47c.42,9.5-1.22,19-.74,28.41.38,7.4-2.12,12.06-8.18,15.87a32.76,32.76,0,0,0-4.67,3,9,9,0,0,0-.85.9,6.44,6.44,0,0,0-.67,1.07,6,6,0,0,0-.58,2C589.54,125.1,594.07,120,599.82,116.6Z"/><path class="cls-8" d="M617.63,141.86l0,0c-.3,2.07,1.16,3.44,2.15,4.9a12.27,12.27,0,0,1,2.42,9,9.53,9.53,0,0,1,3.34-1.55c2.53-.64,5.21-.34,7.86-.26-7.2-.31-11-5.05-14-10.76-.32-.59-1.14-.91-1.73-1.36h0Z"/><path class="cls-8" d="M615.79,140v0h0Z"/><path class="cls-8" d="M613.9,136.26h0l.93,1.85h0l1,1.9h0c0-.19,0-.38,0-.57a2.66,2.66,0,0,0-.1-.49.5.5,0,0,0,0-.13,1.2,1.2,0,0,0-.18-.31,1.33,1.33,0,0,0-.56-.39h0a4.84,4.84,0,0,0,0-.53,1.46,1.46,0,0,0-.89-1.31h0c0-.1,0-.2,0-.29a1.63,1.63,0,0,0-1.24-1.6Z"/><path class="cls-14" d="M617.63,141.86l0,0"/><path class="cls-14" d="M616.67,140.89l.93.94"/><path class="cls-14" d="M616.72,140.94l-.93-.93"/><path class="cls-14" d="M615.78,140h0"/><path class="cls-14" d="M615.78,140l0,0"/><path class="cls-3" d="M582.44,158.45c-8.94-3-17.42-7.37-26.76-9.23-4.11,3.81-11.35,5.88-12.34,10.82a9.14,9.14,0,0,0,0,3.09h51.62l-5.83-2.25C586.89,160,584.67,159.21,582.44,158.45Z"/><path class="cls-8" d="M576.07,133.55v0a5.1,5.1,0,0,0,3.7-2.79h0c1.12-.13,2-.51,1.86-1.86a1.4,1.4,0,0,0,1.84-.94,2,2,0,0,0-1.33.25,1.52,1.52,0,0,0-.54.68h0c-1,0-1.53.32-1.74,1a2.58,2.58,0,0,0-.09.82h0l-.74,0a4.53,4.53,0,0,0-1.32.18,2.32,2.32,0,0,0-1,.62,3,3,0,0,0-.65,2h-.33a1.47,1.47,0,0,0-1.53,1.31Z"/><path class="cls-3" d="M849.68,108.4a2.63,2.63,0,0,0-.07,2.6h0A2.63,2.63,0,0,1,849.68,108.4Z"/><path class="cls-11" d="M679.42,129.16a14.64,14.64,0,0,0,2.49-1.19c9.76-7.1,19.47-14.26,29.22-21.37,2.3-1.68,4.71-3.22,7.12-4.73,5.32-3.34,10.7-6.59,15.23-11h0c1.11-2.48,3.27-3.82,5.4-5.08.71-.42,1.42-.84,2.09-1.28C747.62,80,753.16,73.91,760.85,71c1.65-6.62,5.95-12,8.66-18.08,2.35-5.29,6.32-9.81,7.44-15.68-4,.54-6.9,3.25-10.39,4.8-17.41,7.76-34.43,16.38-51.75,24.31-7.84,3.59-13.12,8-16.25,16.36C695.1,92,691.12,101,687.22,110.06c-1.22,2.85-2.44,5.72-3.63,8.59C682.15,122.13,680.75,125.63,679.42,129.16Z"/><path class="cls-12" d="M760.85,71,771.5,95.19c3.67,7.29,6.15,15.15,10.21,22.26.58,1,1.19,2,1.84,3q6.29-3.76,12.56-7.55a2.87,2.87,0,0,0,1.53-2.7,5.71,5.71,0,0,1,2.14-6c.57-7.59,1.2-15.17,1.82-22.76-.76-5.26,1.5-8.79,5.73-11.93.48-.35.95-.72,1.42-1.08Q794.38,53,780,37.45c-1.11-1.2-2-1.22-3.07-.21-1.12,5.87-5.09,10.39-7.44,15.68C766.8,59,762.5,64.38,760.85,71Z"/><path class="cls-13" d="M826.69,119.73c.85,1,1.7,1.92,2.54,2.89C828.39,121.65,827.54,120.69,826.69,119.73Z"/><path class="cls-13" d="M809.46,129.05c-3.9-6.38-6.38-13.65-9.41-20.58a6.94,6.94,0,0,1-.36-3.15l.09-1.12a5.71,5.71,0,0,0-2.14,6,2.87,2.87,0,0,1-1.53,2.7q-6.27,3.8-12.56,7.55c.28.52.56,1,.85,1.57Z"/><path class="cls-4" d="M731.62,161.05l-1.69.72c-.2,1.13-.76,1.38-1.71.73-.44,0-.92-.16-1.36-.15a1.14,1.14,0,0,0-.41.07l-2.13.71h21.37a7.5,7.5,0,0,0-1-.26C740.34,162.09,735.8,162.77,731.62,161.05Z"/><path class="cls-11" d="M819.28,140.39c.1-.11.19-.23.29-.35a36,36,0,0,1-10.11-11l-25.06-7a22.31,22.31,0,0,0-5.4,3.47c-6.52,5.3-13.29,10.3-19.66,15.77-6.58,5.65-14,10.27-20.06,16.56,1.85,2.63,4.84,2.64,7.54,3.44a32.55,32.55,0,0,1,4.55,1.88h35.28c8-4.17,16.05-8.36,24.11-12.46Z"/><path class="cls-8" d="M760.85,71c-7.69,2.91-13.23,9-19.88,13.48-.67.44-1.38.86-2.09,1.28-2.13,1.26-4.29,2.6-5.4,5.08h0c7.39-4.66,14.9-9.13,22.11-14,2.74-1.88,4.08-1.88,5.72,1.07.81,1.46,1.65,2.91,2.49,4.36,2.52,4.35,5.14,8.64,7.7,13Z"/><path class="cls-2" d="M739.28,157.81l-7.66,3.24c4.18,1.72,8.72,1,13.06,1.82a7.5,7.5,0,0,1,1,.26h5.68a32.55,32.55,0,0,0-4.55-1.88C744.12,160.45,741.13,160.44,739.28,157.81Z"/><path class="cls-2" d="M729.93,161.77l-1.71.73C729.17,163.15,729.73,162.9,729.93,161.77Z"/><path class="cls-7" d="M842.21,163.13h0l-.69-.71Z"/><path class="cls-7" d="M810.76,150.67c3.12-1.58,6.25-3.16,9.38-4.7,3.69-1.82,3.6-3.22.59-5.12-.4-.26-.77-.54-1.16-.81-.1.12-.19.24-.29.35Z"/><path class="cls-9" d="M853.23,39.24c-6.54,1.12-3.36,4.79-2.06,7.89,1.73,4.13,3.83,8.12,5.24,12.34,2.29,6.81,5.87,12.13,12.76,15.2,6.56,2.92,12.33,7.31,18.25,11.39,3.4,2.34,6.86,2.85,10.79.94s8.07-1.34,12.41-.16c7.27,2,14.17,4.84,21.16,7.49,2.85,1.08,4.59.49,6.66-2,5.52-6.64,11.49-12.9,17.33-19.26,4.15-4.54,3.88-6-1.3-9.47-3.3-2.2-6.23-5-9.48-7.23-10.82-7.55-23.07-11.28-35.77-14.55-11.18-2.89-22.86-3.71-33.63-8.2A200.42,200.42,0,0,0,853.21,38,7.1,7.1,0,0,1,853.23,39.24Z"/><path class="cls-10" d="M864.68,86c4.23,1.93,8.44,3.91,11.91,7.12l.76.69a12.7,12.7,0,0,0,6.2,3.41,1.63,1.63,0,0,1,1.77,1,2.1,2.1,0,0,1,.13.26,1.33,1.33,0,0,1,1,.41,2.86,2.86,0,0,1,.47.7l.1.22a1.29,1.29,0,0,1,.58.09.92.92,0,0,1,.24.13,3,3,0,0,1,.79,1.15l1.21.48h0l-.06,0,1.23.48h0a5.81,5.81,0,0,1,2.12.56c5.09,4,10.43,6.88,17.16,4.3,7.19-2.78,13.88-1.61,20.46.32,5.11,1.5,10.17,3.48,15.35,4.43,4.8.88,9.46,2.46,14.18,3.73h0Q972.5,100,984.7,84.6c1.42-1.79,2.72-3.67,4.07-5.51C974.42,66.74,958.65,56.34,943,45.76a5.6,5.6,0,0,0-2.51-1.06c-16-1.12-30.9-6.76-46-11.29a31.59,31.59,0,0,0-18.89.21c10.77,4.49,22.45,5.31,33.63,8.2,12.7,3.27,24.95,7,35.77,14.55,3.25,2.28,6.18,5,9.48,7.23,5.18,3.47,5.45,4.93,1.3,9.47-5.84,6.36-11.81,12.62-17.33,19.26-2.07,2.49-3.81,3.08-6.66,2-7-2.65-13.89-5.52-21.16-7.49-4.34-1.18-8.41-1.8-12.41.16s-7.39,1.4-10.79-.94c-5.92-4.08-11.69-8.47-18.25-11.39-6.89-3.07-10.47-8.39-12.76-15.2-1.41-4.22-3.51-8.21-5.24-12.34-1.3-3.1-4.48-6.77,2.06-7.89a7.1,7.1,0,0,0,0-1.29c-2.77.48-5.63.52-8.27,1.69l3.18,7.49Z"/><path class="cls-10" d="M889.2,101.4l.65.26-1.21-.48h0Z"/><path class="cls-10" d="M840.51,161.27c-3.56-4.36-9.39-8.12-10.42-13s4.76-9.71,7-14.83a7.27,7.27,0,0,0-.34-.81h0a69.47,69.47,0,0,0-7.54-10.06c-.84-1-1.69-1.93-2.54-2.89-2.19-2.45-4.38-4.89-6.43-7.46-1.32-1.65-3-3-3.65-5.17-3.41-4.12-5.05-9.25-7.89-13.71-2.49-3.91-4.16-8.32-7.12-12-.62,7.59-1.25,15.17-1.82,22.76l-.09,1.12a6.94,6.94,0,0,0,.36,3.15c3,6.93,5.51,14.2,9.41,20.58h0a36,36,0,0,0,10.11,11c.39.27.76.55,1.16.81,3,1.9,3.1,3.3-.59,5.12-3.13,1.54-6.26,3.12-9.38,4.7-8.06,4.1-16.08,8.29-24.11,12.46h55.56l-.69-.71C841.17,162.05,840.83,161.67,840.51,161.27Z"/><path class="cls-2" d="M801.6,81.44c3,3.63,4.63,8,7.12,12,2.84,4.46,4.48,9.59,7.89,13.71,4.48.39,7.55,3.69,11.25,5.64,2.69,1.43,4.24,1.06,5.6-1.35,4.81-8.53,11.62-15.76,16-24.56,1.82-3.69-1.19-6.86-1.8-10.28C846,67.27,840.49,59.33,838,50.31c-.81-2.86-2.82-1.42-4.49-1a10.76,10.76,0,0,0-3.89,2.37c-6.91,5.6-13.72,11.35-20.82,16.7-.47.36-.94.73-1.42,1.08C803.1,72.65,800.84,76.18,801.6,81.44Z"/><path class="cls-5" d="M960.29,115.46h0c.46,1.81.93,3.62,1.39,5.43q2.25,8.76,4.53,17.53c.62,2.39,1.09,4.71.13,7.16-2.26,5.84-4.44,11.71-6.68,17.55h4.76c7.35-5.51,14.68-11,22.1-16.46,1.92-1.4,1.66-3.06,1.69-4.84.19-11.77.46-23.54.53-35.32.06-9.14.88-18.28,0-27.42-1.35,1.84-2.65,3.72-4.07,5.51Q972.52,100.05,960.29,115.46Z"/><path class="cls-4" d="M838,50.31c2.54,9,8,17,9.69,26.24.61,3.42,3.62,6.59,1.8,10.28-4.36,8.8-11.17,16-16,24.56-1.36,2.41-2.91,2.78-5.6,1.35-3.7-1.95-6.77-5.25-11.25-5.64.66,2.12,2.33,3.52,3.65,5.17,2,2.57,4.24,5,6.43,7.46.85,1,1.7,1.92,2.54,2.89a69.47,69.47,0,0,1,7.54,10.06h0c2.34-1.39,3.45-3.66,4.48-5.94.34-.76.67-1.52,1-2.25.49-1,1.05-1.91,1.63-2.83,1.76-2.77,3.71-5.43,4.5-8.71a1.48,1.48,0,0,1,.89-1.81l.3-.14a2.63,2.63,0,0,1,.07-2.6,4.28,4.28,0,0,1,2.23-1.4,2.17,2.17,0,0,1-.25-1.15c.06-.56.46-1,1.2-1.27a1.44,1.44,0,0,1,.21-.84,2.1,2.1,0,0,1,1.14-.76v0a5.85,5.85,0,0,1-.19-2.69,7.19,7.19,0,0,1,.83-2.34,44.17,44.17,0,0,1,2.82-4c4.05-5.9,4.49-11.17,1.21-17.81-4.19-8.46-6.44-17.82-10.6-26.37a2.66,2.66,0,0,1-.16-2.63l-3.18-7.49h0c-4,3-8.19,5.85-11.48,9.72C835.13,48.89,837.14,47.45,838,50.31Z"/><path class="cls-7" d="M966.21,138.42q-2.3-8.76-4.53-17.53c-.46-1.81-.93-3.62-1.39-5.43h0c-4.72-1.27-9.38-2.85-14.18-3.73-5.18-1-10.24-2.93-15.35-4.43-6.58-1.93-13.27-3.1-20.46-.32-2.47,1-5,1.77-7.12,3.36a10.55,10.55,0,0,0-1.07,1,9,9,0,0,0-1.37,1.8c-.23.46-.43.93-.63,1.4-.33.83-.63,1.67-.92,2.51-.08.22-.15.43-.23.64a20.86,20.86,0,0,1-3.28,6.63c-.15.51-.3,1-.44,1.53l.23.25h0a1.2,1.2,0,0,1-.22,1.41l-.18.13c.06.22.13.43.21.64a8.34,8.34,0,0,0,1,1.76l.4.54c.28.36.56.7.85,1.05,1.31,1.57,2.63,3.12,2.79,5.33,9.71,6.57,8.22,16.71,8.74,26.21h50.64c2.24-5.84,4.42-11.71,6.68-17.55C967.3,143.13,966.83,140.81,966.21,138.42Z"/><path class="cls-12" d="M865.34,131.34c2.35-.19,4.71-.32,7.07-.42,7.07-.29,14.17-.39,21.18-1.6a2.27,2.27,0,0,1,.94-1.44,2.06,2.06,0,0,1,.51-.27c.14-.52.29-1,.43-1.55h0s-.23-.26-.23-.26c.14-.51.29-1,.44-1.53a20.86,20.86,0,0,0,3.28-6.63c.08-.21.15-.42.23-.64.29-.84.59-1.68.92-2.51.2-.47.4-.94.63-1.4a12.26,12.26,0,0,0-5.81-7.32c-1.49-1-3.37-1.63-3.91-3.65l-1.23-.48h0l.06,0h0l-.65-.26-.56-.22h0l0,0-.06,0,.06,0L887,99.81h0l-1.6-1.33h0l-1.85-1.23a12.7,12.7,0,0,1-6.2-3.41l-.76-.69c-3.47-3.21-7.68-5.19-11.91-7.12-3.94,5.38-6.06,11.88-10.47,17h0v0a1.41,1.41,0,0,1-1.33,1.59c.64,1.19,0,1.89-1,2.45h0a5.11,5.11,0,0,1-2.29,4,0,0,0,0,0,0,0c-.39.65-.79,1.29-1.19,1.94-.79,3.28-2.74,5.94-4.5,8.71-.58.92-1.14,1.86-1.63,2.83-.37.73-.7,1.49-1,2.25-1,2.28-2.14,4.55-4.48,5.94h0a7.27,7.27,0,0,1,.34.81C846.42,131.49,855.94,132.11,865.34,131.34Z"/><path class="cls-8" d="M854.21,103c4.41-5.09,6.53-11.59,10.47-17l-16.56-38.9a2.66,2.66,0,0,0,.16,2.63c4.16,8.55,6.41,17.91,10.6,26.37,3.28,6.64,2.84,11.91-1.21,17.81a44.17,44.17,0,0,0-2.82,4,7.19,7.19,0,0,0-.83,2.34A5.85,5.85,0,0,0,854.21,103Z"/><path class="cls-8" d="M891.06,102.14l0,0h0c.54,2,2.42,2.7,3.91,3.65a12.26,12.26,0,0,1,5.81,7.32,9,9,0,0,1,1.37-1.8,10.55,10.55,0,0,1,1.07-1c2.08-1.59,4.65-2.38,7.12-3.36-6.73,2.58-12.07-.28-17.16-4.3a5.81,5.81,0,0,0-2.12-.56h0Z"/><path class="cls-8" d="M888.64,101.19h0Z"/><path class="cls-8" d="M885.4,98.48h0l1.6,1.33h0l1.64,1.36h0a3,3,0,0,0-.79-1.15.92.92,0,0,0-.24-.13,1.29,1.29,0,0,0-.58-.09h0l-.1-.22a2.86,2.86,0,0,0-.47-.7,1.33,1.33,0,0,0-1-.41h0a2.1,2.1,0,0,0-.13-.26,1.63,1.63,0,0,0-1.77-1Z"/><path class="cls-14" d="M891,102.12l0,0"/><path class="cls-14" d="M889.79,101.64l1.23.48"/><path class="cls-14" d="M888.62,101.17h0"/><path class="cls-14" d="M889.85,101.66l-1.21-.48"/><path class="cls-14" d="M888.56,101.15l.06,0"/><path class="cls-3" d="M900.28,136.92l-6.69-7.6h0c-7,1.21-14.11,1.31-21.18,1.6-2.36.1-4.72.23-7.07.42-9.4.77-18.92.15-28.23,2.15-2.26,5.12-8.08,9.9-7,14.83s6.86,8.59,10.42,13c.32.4.66.78,1,1.15l.69.71H909C908.5,153.63,910,143.49,900.28,136.92Z"/><path class="cls-8" d="M849.61,111a0,0,0,0,1,0,0,5.11,5.11,0,0,0,2.29-4h0c1-.56,1.6-1.26,1-2.45a1.41,1.41,0,0,0,1.33-1.59,2.1,2.1,0,0,0-1.14.76,1.44,1.44,0,0,0-.21.84h0c-.74.29-1.14.71-1.2,1.27a2.17,2.17,0,0,0,.25,1.15h0a4.28,4.28,0,0,0-2.23,1.4,2.63,2.63,0,0,0-.07,2.6h0l-.3.14a1.48,1.48,0,0,0-.89,1.81C848.82,112.3,849.22,111.66,849.61,111Z"/><path class="cls-9" d="M895,127.61a2.06,2.06,0,0,0-.51.27,2.27,2.27,0,0,0-.94,1.44l6.69,7.6c-.16-2.21-1.48-3.76-2.79-5.33-.29-.35-.57-.69-.85-1.05l-.4-.54a8.34,8.34,0,0,1-1-1.76c-.08-.21-.15-.42-.21-.64h0l.18-.13a1.2,1.2,0,0,0,.22-1.41C895.33,126.58,895.18,127.09,895,127.61Z"/><path class="cls-15" d="M895.68,124.27c-.15.51-.3,1-.44,1.53"/><path class="cls-10" d="M61.07,72.17c4.22,2.21,8.46,4.38,12.73,6.47a1.84,1.84,0,0,1,.64.58c.19.24.36.51.56.73l1.72.69,1.71.69,7.71,3.12c8.72-.17,17.24,1.82,25.89,2.48,8.37.64,16.7,1.89,25.05,2.75A21.9,21.9,0,0,1,143.35,91l.51-1.71c.35-1.73.8-3.43,1.31-5.1,2.2-7.26,5.65-14.08,8-21.28,1.67-6.49,3.21-13,5.05-19.46.92-3.24,0-4.18-3.29-4.8-8.58-1.62-17.05-3.76-25.57-5.7h0c-6.35-.06-12.45-1.57-18.57-3-2.78-.63-5.56-1.24-8.38-1.68-11.92-1.87-23.85-3.68-35.77-5.56a14.41,14.41,0,0,1-2.6-.92,9.78,9.78,0,0,0-2.12.8q-20.37,13.47-40.7,27c.07,1.38,1.31,1.53,2.19,2h0C36,58.48,48.43,65.54,61.07,72.17Z"/><path class="cls-3" d="M161,144.53l20.06.67L161,144.53Z"/><path class="cls-11" d="M102.44,28.34c2.82.44,5.6,1.05,8.38,1.68,6.12,1.4,12.22,2.91,18.57,3h0c2.53-1,5-.38,7.41.23.8.2,1.6.41,2.38.57,7.86,1.55,16.1,1.15,23.59,4.53,5.85-3.52,12.67-4.26,18.91-6.66,5.4-2.08,11.41-2.47,16.35-5.83-3.18-2.41-7.18-2.58-10.75-3.95-17.8-6.82-35.92-12.76-53.78-19.4-8.08-3-14.94-3.62-23.06.07C95.22,9.48,79.33,14.93,64.07,21.86a14.41,14.41,0,0,0,2.6.92C78.59,24.66,90.52,26.47,102.44,28.34Z"/><path class="cls-12" d="M162.77,38.32,153.2,63c-2.38,7.2-5.83,14-8,21.28-.51,1.67-1,3.37-1.31,5.1,4.74,1.18,9.48,2.38,14.22,3.54a2.85,2.85,0,0,0,3-.82c2.59-3.87,6.2-2.82,9.53-1.94a16.54,16.54,0,0,0,9,.07c2.44-.67,5.59-1.15,7.7-.16a11.45,11.45,0,0,0,2.21.79c1.57-8,5.33-15.44,8.32-23.08a4.82,4.82,0,0,1,.79-1.29q.7-19.14,1.44-38.29c.07-1.63-.53-2.26-2-2.32-4.94,3.36-10.95,3.75-16.35,5.83C175.44,34.06,168.62,34.8,162.77,38.32Z"/><path class="cls-6" d="M44.33,163A25.86,25.86,0,0,1,43,157.85c-.27-1-.56-1.91-.86-2.86-.25-.75-.51-1.5-.79-2.24a33.39,33.39,0,0,0-1.43-3.25,25.79,25.79,0,0,0-1.5-2.58l-.54-1v0h0a1.76,1.76,0,0,1-.52-1,1.6,1.6,0,0,1,.32-1.08.9.9,0,0,1-.53-.47.94.94,0,0,1,0-.7,3.18,3.18,0,0,1-.64-.31,1.47,1.47,0,0,1-.5-.49,1.06,1.06,0,0,1-.16-.43,2,2,0,0,1,.26-1.18,5.12,5.12,0,0,1-1.77-1.46,9.22,9.22,0,0,1-1.18-2c-.25-.56-.47-1.13-.69-1.68-.12-.28-.23-.55-.35-.81C26.45,122,21.05,109.56,15.51,97.21a4.86,4.86,0,0,1-.46-3.56c3.35-10.38,2.74-21.26,4.11-31.89.15-1.21.48-2.4.73-3.6-.71-2.26,1.34-4.53,0-6.79C13.6,66.92,7.41,82.5,1,98a10.68,10.68,0,0,0-.08,8.75c7.45,18.77,14.74,37.6,22.13,56.39H44.38A.61.61,0,0,1,44.33,163Z"/><path class="cls-13" d="M146,95.73c13.19,4.19,26.42,8.27,39.52,12.72,3.9,1.32,4.82.27,4-3.2a34.63,34.63,0,0,1-.05-14.44,11.45,11.45,0,0,1-2.21-.79c-2.11-1-5.26-.51-7.7.16a16.54,16.54,0,0,1-9-.07c-3.33-.88-6.94-1.93-9.53,1.94a2.85,2.85,0,0,1-3,.82c-4.74-1.16-9.48-2.36-14.22-3.54L143.35,91Z"/><path class="cls-4" d="M20.57,96.59c.53,8.61,5.1,16.24,8.28,24.18,2.57,6.42,6.47,12.37,7.28,19.45a1.61,1.61,0,0,1,1.06,2.39l.51,1.19a1.72,1.72,0,0,1,.19,2.08l.54,1a25.79,25.79,0,0,1,1.5,2.58,33.39,33.39,0,0,1,1.43,3.25c.28.74.54,1.49.79,2.24.3.95.59,1.9.86,2.86a11.68,11.68,0,0,1,3.6,5.28H64.19c3.3-1.93,6.7-3.7,9.91-5.76,9.58-6.13,19.1-12.37,28.62-18.6-1.33-4.69-2.23-9.51-3.52-14.21-.45-1.65.61-2.88,1.62-4.09.76-.9,1.5-1.82,2.24-2.75L94,102.41l-.49-.2a3.27,3.27,0,0,1-2-1.67,2.89,2.89,0,0,1,.09-2.09h0a4.43,4.43,0,0,1-2.74-1.85c-1-1.43-1.46-3.35-2.44-4.76-2.51-3.62-6.2-6.34-7.94-10.51l-1.71-.69c-.93.66-1.51.44-1.72-.69-.2-.22-.37-.49-.56-.73a1.84,1.84,0,0,0-.64-.58c-4.27-2.09-8.51-4.26-12.73-6.47C48.43,65.54,36,58.48,23.44,51.72h0c-2.19,1.76-1.09,4.79-2.64,6.8A324.57,324.57,0,0,0,20.57,96.59Zm46-15.83c7.62,4.07,11,11.55,15.12,18.6,2.69,4.63,4.66,9.57,7.11,14.3,2.75,5.32,1.52,8.21-3.24,12.06-10.49,8.48-22.33,14.85-33.63,22.07-2,1.27-3,1.71-4.25-1.28-4.19-10.36-9.48-20.31-13.11-30.85C32,108.41,27.7,101.82,26.26,94.4c-1.56-8-1.14-16.39.09-24.57.23-1.49.78-2.93,1-4.46.65-4.31,3.66-5.86,8.38-3.92l10.37,7.07A218.63,218.63,0,0,0,66.55,80.76Z"/><path class="cls-8" d="M162.77,38.32c-7.49-3.38-15.73-3-23.59-4.53-.78-.16-1.58-.37-2.38-.57-2.4-.61-4.88-1.19-7.41-.23h0c8.52,1.94,17,4.08,25.57,5.7,3.27.62,4.21,1.56,3.29,4.8-1.84,6.44-3.38,13-5.05,19.46Z"/><path class="cls-2" d="M89,92.21c-1.34-2.47-3.45-4.6-2.89-7.76l-7.71-3.12c1.74,4.17,5.43,6.89,7.94,10.51,1,1.41,1.41,3.33,2.44,4.76a4.43,4.43,0,0,0,2.74,1.85A53.87,53.87,0,0,0,89,92.21Z"/><path class="cls-2" d="M76.72,80.64,75,80C75.21,81.08,75.79,81.3,76.72,80.64Z"/><path class="cls-7" d="M124.77,163.13h0a30.26,30.26,0,0,1,10.09-3.9A30.26,30.26,0,0,0,124.77,163.13Z"/><path class="cls-7" d="M114.21,163.13h0l-1.89-.37Z"/><path class="cls-8" d="M15.05,93.65a4.86,4.86,0,0,0,.46,3.56c5.54,12.35,10.94,24.78,16.63,37.06.12.26.23.53.35.81.22.55.44,1.12.69,1.68a9.22,9.22,0,0,0,1.18,2,5.12,5.12,0,0,0,1.77,1.46h0a2,2,0,0,0-.26,1.18,1.06,1.06,0,0,0,.16.43,1.47,1.47,0,0,0,.5.49,3.18,3.18,0,0,0,.64.31h0a.94.94,0,0,0,0,.7.9.9,0,0,0,.53.47,1.6,1.6,0,0,0-.32,1.08,1.76,1.76,0,0,0,.52,1h0v0a1.72,1.72,0,0,0-.19-2.08l-.51-1.19a1.61,1.61,0,0,0-1.06-2.39c-.81-7.08-4.71-13-7.28-19.45-3.18-7.94-7.75-15.57-8.28-24.18a324.57,324.57,0,0,1,.23-38.07l-.91-.36c-.25,1.2-.58,2.39-.73,3.6C17.79,72.39,18.4,83.27,15.05,93.65Z"/><path class="cls-2" d="M43,157.85A25.86,25.86,0,0,0,44.33,163a.61.61,0,0,0,.05.12h2.23A11.68,11.68,0,0,0,43,157.85Z"/><path class="cls-14" d="M37.88,145.85v0"/><path class="cls-14" d="M38.43,146.92l-.54-1"/><path class="cls-2" d="M35.74,61.45C31,59.51,28,61.06,27.36,65.37c-.23,1.53-.78,3-1,4.46C25.12,78,24.7,86.37,26.26,94.4c1.44,7.42,5.78,14,8.29,21.26,3.63,10.54,8.92,20.49,13.11,30.85,1.21,3,2.25,2.55,4.25,1.28,11.3-7.22,23.14-13.59,33.63-22.07,4.76-3.85,6-6.74,3.24-12.06-2.45-4.73-4.42-9.67-7.11-14.3-4.08-7-7.5-14.53-15.12-18.6A218.63,218.63,0,0,1,46.11,68.52Z"/><path class="cls-2" d="M91.56,98.45a2.89,2.89,0,0,0-.09,2.09,3.27,3.27,0,0,0,2,1.67l.49.2C93.69,100.77,93.26,99.22,91.56,98.45Z"/><path class="cls-9" d="M284.38,56.37c-5.42-3.83-5.77,1-7,4.13-1.7,4.14-3,8.44-5,12.43-3.2,6.44-4.43,12.73-1.72,19.77,2.57,6.71,3.54,13.89,4.84,21,.76,4.07,2.84,6.88,7,8.3s6.65,4.76,8.89,8.66c3.75,6.54,6.59,13.44,9.66,20.26,1.26,2.79,2.91,3.6,6.13,3.3,8.59-.8,17.24-1,25.87-1.37,6.14-.27,7-1.49,5.78-7.61-.78-3.89-.9-7.91-1.6-11.82-2.3-13-8.33-24.28-15-35.58-5.87-9.94-13.55-18.79-18-29.58a199.05,199.05,0,0,0-18.89-12.76A8.05,8.05,0,0,1,284.38,56.37Z"/><path class="cls-10" d="M259.39,97.56c1.62,4.36,3.2,8.73,3.38,13.45.11,2.75.37,5.46,2,7.82a1.73,1.73,0,0,1,.48,2.22,1.31,1.31,0,0,1,.42,1,2.64,2.64,0,0,1,0,.28,4.83,4.83,0,0,1-.22.78,1.24,1.24,0,0,1,.44,1,4.53,4.53,0,0,1-.27,1.1c.17.4.34.8.52,1.2h0l0-.06c.17.4.35.8.52,1.21h0c.19.31.45.62.67.93a2.19,2.19,0,0,1,.44,1c.75,6.44,2.51,12.24,9.09,15.18a24.51,24.51,0,0,1,7.35,5,32.62,32.62,0,0,1,4.15,5.09c1,1.48,1.88,3,2.74,4.58.68,1.26,1.34,2.53,2,3.81h57.05c-.68-4.83-1.46-9.65-2.3-14.45h0c-1.43-8.09-3-16.14-4.57-24.21a5.58,5.58,0,0,0-1-2.52c-1-1.12-1.91-2.27-2.82-3.43-8.91-11.36-15-24.48-21.75-37.1-.3-.57-.63-1.1-1-1.63s-.71-1.11-1.09-1.64a32.17,32.17,0,0,0-11.46-9.94c4.44,10.79,12.12,19.64,18,29.58,6.66,11.3,12.69,22.59,15,35.58.7,3.91.82,7.93,1.6,11.82,1.21,6.12.36,7.34-5.78,7.61-8.63.37-17.28.57-25.87,1.37-3.22.3-4.87-.51-6.13-3.3-3.07-6.82-5.91-13.72-9.66-20.26-2.24-3.9-4.67-7.21-8.89-8.66s-6.21-4.23-7-8.3c-1.3-7.06-2.27-14.24-4.84-21-2.71-7-1.48-13.33,1.72-19.77,2-4,3.32-8.29,5-12.43,1.27-3.12,1.62-8,7-4.13a8.05,8.05,0,0,0,.89-.92c-2.3-1.62-4.35-3.61-7-4.65-1,2.51-2,5-3.05,7.54Q267.29,78,259.39,97.56Z"/><path class="cls-10" d="M265.89,125.84l.25.57c-.18-.4-.35-.8-.52-1.2h0Z"/><path class="cls-10" d="M189.5,90.81a34.63,34.63,0,0,0,.05,14.44c.78,3.47-.14,4.52-4,3.2C172.41,104,159.18,99.92,146,95.73h0l-2.61-.83a23.89,23.89,0,0,1-3.93,3.86,49.14,49.14,0,0,1-7.73,4.8c-2.49,1.31-2.45,2.56-1.95,5.11,1.79,9,9,13.86,14.46,20,2.53,2.85,5.48,5.32,8,8.15a13.1,13.1,0,0,0,7.68,3.89c5.69,1,11.47,1.67,17.22,2.48,1.5.21,3.11.26,3.84,2l6.56.56c1.45-2.63,1.43-5.45,1.41-8.27a34.67,34.67,0,0,1,.11-3.82c.56-5.6-.9-12.38,1.79-16.53s10.23-3.49,15.46-5.52a8,8,0,0,0,.32-.81c.27-1.07.5-2.14.7-3.22h0c.26-1.42.46-2.85.63-4.28l.12-1c.08-.85.16-1.69.23-2.54.09-1.19.17-2.37.25-3.56s.12-2.18.19-3.27c.15-2.74.32-5.47.63-8.19.23-2.1,0-4.27,1.08-6.23.5-5.33,3-10.12,4.12-15.28,1-4.52,2.93-8.82,3.4-13.48-6.08,5.17-12.18,10.32-18.23,15.53a9.57,9.57,0,0,0-1.18,1.2,4.82,4.82,0,0,0-.79,1.29C194.83,75.37,191.07,82.85,189.5,90.81Z"/><path class="cls-2" d="M210.5,78.47c2.89,3.44,2.73,7.94,4,11.94.9,2.91,2.25,3.74,4.92,3,9.43-2.63,19.36-2.93,28.66-6.07,3.91-1.32,4-5.68,6-8.54,5.39-7.73,7.13-17.23,11.7-25.4,1.45-2.59-1-3-2.5-3.85a10.78,10.78,0,0,0-4.43-1.08c-9.44-1-18.92-1.75-28.3-3.14-5.2-.78-9.3.12-12.49,4.38-.47,4.66-2.4,9-3.4,13.48C213.47,68.35,211,73.14,210.5,78.47Z"/><path class="cls-4" d="M265.74,53.4c-4.57,8.17-6.31,17.67-11.7,25.4-2,2.86-2.09,7.22-6,8.54-9.3,3.14-19.23,3.44-28.66,6.07-2.67.74-4-.09-4.92-3-1.23-4-1.07-8.5-4-11.94-1,2-.85,4.13-1.08,6.23-.31,2.72-.48,5.45-.63,8.19-.07,1.09-.13,2.18-.19,3.27s-.16,2.37-.25,3.56c-.07.85-.15,1.69-.23,2.54l-.12,1c-.17,1.43-.37,2.86-.63,4.28h0c-.2,1.08-.43,2.15-.7,3.22h0c2.42.62,4.63,0,6.79-.82,1-.36,1.94-.75,2.9-1.07.52-.17,1-.32,1.57-.46,3.69-1,7.58-1.32,10.93-3.36a1.46,1.46,0,0,1,1.91-.65l.31.11a4,4,0,0,1,.6-1,2.84,2.84,0,0,1,.23-.25,2.11,2.11,0,0,1,.51-.35,1.53,1.53,0,0,1,.27-.11,2.21,2.21,0,0,1,.57-.11,4.87,4.87,0,0,1,2.28.62,2.85,2.85,0,0,1,.17-.39,1.51,1.51,0,0,1,2.21-.65,1.42,1.42,0,0,1,1-.47,2.44,2.44,0,0,1,1.07.3h0c1.91-3.56,5.8-3.39,8.84-4,7-1.3,11.08-4.72,13.45-11.74,3-8.94,8.05-17.15,11.16-26.14a2.65,2.65,0,0,1,1.75-2c1-2.51,2-5,3.05-7.54h0c-5-.7-9.94-1.65-15-1.25C264.75,50.4,267.19,50.81,265.74,53.4Z"/><path class="cls-16" d="M188.38,163.13h2.34c-.8-.34-1.6-.67-2.42-1A8.09,8.09,0,0,1,188.38,163.13Z"/><path class="cls-5" d="M188.3,162.16a21,21,0,0,1-.15-3.07v0c0-1.36.12-2.73.21-4.09,0-.69.09-1.38.11-2.06,0-.34,0-.69,0-1,0-.68,0-1.37-.07-2a15.1,15.1,0,0,0-.86-4.07L181,145.2,161,144.53l-8.28-.27c-1.28,3.68-3.06,7.19-4.41,10.85a31.52,31.52,0,0,0-1.77,6.82,2.35,2.35,0,0,1-.17.67,2,2,0,0,1-.31.53h42.37a8.09,8.09,0,0,0-.08-1ZM184.13,147a1.1,1.1,0,0,1,.4,0c0,.12,0,.32,0,.33a1,1,0,0,1-.41,0C184.1,147.21,184.08,147,184.13,147Z"/><path class="cls-11" d="M115.06,132.44h0l2.92-4.26a4.45,4.45,0,0,1,.38-3.27,3.48,3.48,0,0,1,1.36-1.33c1.33-.73,2.43.49,3,1.85,7.52,6.46,17,9.85,24.92,15.61,1.61,1.17,3.36,2.15,5,3.22l8.28.27,20.06.67c-.73-1.72-2.34-1.77-3.84-2-5.75-.81-11.53-1.43-17.22-2.48a13.1,13.1,0,0,1-7.68-3.89c-2.56-2.83-5.51-5.3-8-8.15-5.48-6.17-12.67-11-14.46-20-.5-2.55-.54-3.8,1.95-5.11a49.14,49.14,0,0,0,7.73-4.8,23.89,23.89,0,0,0,3.93-3.86l2.61.83L143.35,91a21.9,21.9,0,0,0-6.27-1.36c-8.35-.86-16.68-2.11-25.05-2.75-8.65-.66-17.17-2.65-25.89-2.48-.56,3.16,1.55,5.29,2.89,7.76a53.87,53.87,0,0,1,2.52,6.24h0c1.7.77,2.13,2.32,2.41,4h0l9.09,15.31c-.74.93-1.48,1.85-2.24,2.75-1,1.21-2.07,2.44-1.62,4.09,1.29,4.7,2.19,9.52,3.52,14.21a49.77,49.77,0,0,0,2.78,7.69Zm4.43-10.62a3.71,3.71,0,0,1-1.06-4.24l-.28-1.21.43-.09c0,.43-.09.86-.13,1.29h0a2.41,2.41,0,0,1,1.42,2.27A7,7,0,0,1,119.49,121.82Zm-15.36,13.35c-.36-1.24.47-2.85,0-4-2.85-8,.72-13.69,6.37-18.9,1.93-1.79,3.17-2.2,3.87.45,1,3.87,3.64,7.82.27,11.47-1.21,5.16-5,8.27-7.75,12.07C105.41,138.35,104.43,136.19,104.13,135.17Z"/><path class="cls-7" d="M146.49,161.93a31.52,31.52,0,0,1,1.77-6.82c1.35-3.66,3.13-7.17,4.41-10.85l8.28.27h0l-8.28-.27c-1.68-1.07-3.43-2-5-3.22-8-5.76-17.4-9.15-24.92-15.61-2.72-1.05-3.63,1-4.73,2.75l-2.92,4.26h0l-9.56,14a49.77,49.77,0,0,1-2.78-7.69c-9.52,6.23-19,12.47-28.62,18.6-3.21,2.06-6.61,3.83-9.91,5.76h48c0-.12.08-.24.13-.37l9-5.1a5,5,0,0,0,1.77-.3,14.43,14.43,0,0,1,3.63-1.52c3.55-.89,6.88.09,10,3l6.87,4.31H146a2,2,0,0,0,.31-.53A2.35,2.35,0,0,0,146.49,161.93Z"/><path class="cls-4" d="M136.77,158.82c-3.14-2.89-6.47-3.87-10-3a14.43,14.43,0,0,0-3.63,1.52,5,5,0,0,1-1.77.3l-9,5.1,1.89.37h10.55a30.26,30.26,0,0,1,10.09-3.9Z"/><path class="cls-12" d="M112.2,163.13h2l-1.88-.37C112.28,162.89,112.24,163,112.2,163.13Z"/><path class="cls-7" d="M288.33,154.74a32.62,32.62,0,0,0-4.15-5.09,24.51,24.51,0,0,0-7.35-5c-1.34-.58-2.66-1.22-4-1.74a13.88,13.88,0,0,0-4.11-1,9.22,9.22,0,0,0-3,.29,27,27,0,0,0-2.84,1.18c-2.79,1.3-5.49,2.83-8.65,3.15l-1.39.77v.34h0a1.3,1.3,0,0,1-.9.83h0a1.21,1.21,0,0,1-.45,0,6.82,6.82,0,0,0-.45,1,8.24,8.24,0,0,0-.41,1.53c-.08.45-.14.89-.18,1.34-.24,2.25-.25,4.56-1.87,6.41a19.13,19.13,0,0,1,.36,4.42h44.14c-.66-1.28-1.32-2.55-2-3.81C290.21,157.75,289.31,156.22,288.33,154.74Z"/><path class="cls-12" d="M233.11,134.77c5.21,4.79,10.29,9.74,16.11,13.84a2.4,2.4,0,0,1,1.11-.39,2.76,2.76,0,0,1,.57,0,2.94,2.94,0,0,1,.55.18l1.4-.8h0s0-.34,0-.34l1.39-.77c3.16-.32,5.86-1.85,8.65-3.15a27,27,0,0,1,2.84-1.18,12.28,12.28,0,0,0,1.07-9.28c-.38-1.73-1.23-3.54-.19-5.35-.17-.41-.35-.81-.52-1.21h0l0,.06h0l-.24-.56-.27-.63h0v0l0-.06,0,.06c-.07-.71-.13-1.42-.2-2.12h0l-.18-2.06h0l-.45-2.19c-1.65-2.36-1.91-5.07-2-7.82-.18-4.72-1.76-9.09-3.38-13.45-6.59,1-12.69,4.11-19.4,4.59h0a1.41,1.41,0,0,1-2.06.19c-.39,1.29-1.33,1.34-2.41,1h0a5.13,5.13,0,0,1-4.47,1.22l0,0-2.22.53c-3.35,2-7.24,2.39-10.93,3.36-.53.14-1,.29-1.57.46-1,.32-1.93.71-2.9,1.07-2.16.79-4.37,1.44-6.79.82h0a8,8,0,0,1-.32.81c8,5.17,14.28,12.34,21.48,18.44C229.62,131.59,231.37,133.17,233.11,134.77Z"/><path class="cls-8" d="M275.19,58.34a2.65,2.65,0,0,0-1.75,2c-3.11,9-8.13,17.2-11.16,26.14-2.37,7-6.41,10.44-13.45,11.74-3,.57-6.93.4-8.84,4,6.71-.48,12.81-3.57,19.4-4.59Q267.28,78,275.19,58.34Z"/><path class="cls-8" d="M266.65,127.6l0,0c-1,1.81-.19,3.62.19,5.35a12.28,12.28,0,0,1-1.07,9.28,9.22,9.22,0,0,1,3-.29,13.88,13.88,0,0,1,4.11,1h0c1.35.52,2.67,1.16,4,1.74-6.58-2.94-8.34-8.74-9.09-15.18a2.19,2.19,0,0,0-.44-1c-.22-.31-.48-.62-.67-.93h0Z"/><path class="cls-8" d="M265.61,125.22h0v0Z"/><path class="cls-8" d="M265.24,121h0l.18,2.06h0c.07.7.13,1.41.2,2.12v0a4.53,4.53,0,0,0,.27-1.1,1.24,1.24,0,0,0-.44-1h0a4.83,4.83,0,0,0,.22-.78,2.64,2.64,0,0,0,0-.28,1.31,1.31,0,0,0-.42-1h0a1.73,1.73,0,0,0-.48-2.22Z"/><path class="cls-14" d="M266.65,127.6l0,0"/><path class="cls-14" d="M266.11,126.35c.17.4.35.8.52,1.21"/><path class="cls-14" d="M265.62,125.21c.17.4.34.8.52,1.2"/><path class="cls-14" d="M265.61,125.19l0-.06"/><path class="cls-14" d="M265.61,125.19v0"/><path class="cls-3" d="M248.57,158.71c.22-3.36.43-6.73.65-10.1h0c-5.82-4.1-10.9-9.05-16.11-13.84-1.74-1.6-3.49-3.18-5.29-4.71-7.2-6.1-13.49-13.27-21.48-18.44-5.23,2-12.72,1.29-15.46,5.52s-1.23,10.93-1.79,16.53a34.67,34.67,0,0,0-.11,3.82c0,2.82,0,5.64-1.41,8.27L181,145.2l6.56.56a15.1,15.1,0,0,1,.86,4.07c0,.68.07,1.37.07,2,0,.34,0,.69,0,1,0,.68-.06,1.37-.11,2.06-.09,1.36-.2,2.73-.21,4.09v0a21,21,0,0,0,.15,3.07h0c.82.3,1.62.63,2.42,1h58.21A19.13,19.13,0,0,0,248.57,158.71Z"/><path class="cls-8" d="M231.07,104.57l0,0a5.13,5.13,0,0,0,4.47-1.22h0c1.08.3,2,.25,2.41-1a1.41,1.41,0,0,0,2.06-.19,2.44,2.44,0,0,0-1.07-.3,1.42,1.42,0,0,0-1,.47h0a1.51,1.51,0,0,0-2.21.65,2.85,2.85,0,0,0-.17.39h0a4.87,4.87,0,0,0-2.28-.62,2.21,2.21,0,0,0-.57.11,1.53,1.53,0,0,0-.27.11,2.11,2.11,0,0,0-.51.35,2.84,2.84,0,0,0-.23.25,4,4,0,0,0-.6,1h0l-.31-.11a1.46,1.46,0,0,0-1.91.65Z"/><path class="cls-10" d="M134.86,159.23a30.26,30.26,0,0,0-10.09,3.9h18.87l-6.87-4.31Z"/><path class="cls-3" d="M184.49,147.34s0-.21,0-.33a1.1,1.1,0,0,0-.4,0s0,.22,0,.33A1,1,0,0,0,184.49,147.34Z"/><path class="cls-4" d="M106.93,136.22c2.72-3.8,6.54-6.91,7.75-12.07,3.37-3.65.75-7.6-.27-11.47-.7-2.65-1.94-2.24-3.87-.45-5.65,5.21-9.22,10.85-6.37,18.9.43,1.19-.4,2.8,0,4C104.43,136.19,105.41,138.35,106.93,136.22Z"/><path class="cls-8" d="M119.72,123.58a3.48,3.48,0,0,0-1.36,1.33,4.45,4.45,0,0,0-.38,3.27c1.1-1.74,2-3.8,4.73-2.75C122.15,124.07,121.05,122.85,119.72,123.58Z"/><path class="cls-8" d="M118.45,117.57h0a3.71,3.71,0,0,0,1.06,4.24,7,7,0,0,0,.38-2A2.41,2.41,0,0,0,118.45,117.57Z"/><path class="cls-8" d="M118.45,117.57c0-.43.08-.86.13-1.29l-.43.09.28,1.21Z"/><path class="cls-9" d="M251.45,148.43a2.94,2.94,0,0,0-.55-.18,2.76,2.76,0,0,0-.57,0,2.4,2.4,0,0,0-1.11.39c-.22,3.37-.43,6.74-.65,10.1,1.62-1.85,1.63-4.16,1.87-6.41,0-.45.1-.89.18-1.34a8.24,8.24,0,0,1,.41-1.53,6.82,6.82,0,0,1,.45-1h0a1.21,1.21,0,0,0,.45,0h0a1.3,1.3,0,0,0,.9-.83Z"/><path class="cls-15" d="M252.87,147.29l1.39-.77"/></g></g></g></svg>